<?xml version="1.0" encoding="UTF-8" standalone="no"?>
<!DOCTYPE svg PUBLIC "-//W3C//DTD SVG 1.1//EN" "http://www.w3.org/Graphics/SVG/1.1/DTD/svg11.dtd">
<svg width="100%" height="100%" viewBox="0 0 95 101" version="1.1" xmlns="http://www.w3.org/2000/svg" xmlns:xlink="http://www.w3.org/1999/xlink" xml:space="preserve" xmlns:serif="http://www.serif.com/" style="fill-rule:evenodd;clip-rule:evenodd;stroke-linejoin:round;stroke-miterlimit:2;">
    <g id="Tavola-da-disegno1" serif:id="Tavola da disegno1" transform="matrix(0.910765,0,0,0.98141,0.601827,0.288226)">
        <rect x="-0.661" y="-0.294" width="103.671" height="102.685" style="fill:none;"/>
        <g transform="matrix(1.2331,0,0,1.14434,-9.16885,-6.07533)">
            <g>
                <path d="M74.249,68.827C71.843,68.806 69.436,68.816 67.027,68.818C66.839,68.818 66.65,68.869 66.484,68.89L66.484,74.283C66.793,74.301 67.044,74.326 67.295,74.327C69.559,74.329 71.822,74.331 74.086,74.327C75.588,74.326 76.287,73.706 76.461,72.208C76.504,71.842 76.49,71.466 76.484,71.094C76.463,69.484 75.844,68.839 74.249,68.827Z" style="fill-rule:nonzero;"/>
                <path d="M41.817,46.857C41.716,46.488 41.566,45.909 41.364,45.12L41.125,44.188L41.075,44.188C40.824,45.271 40.601,46.16 40.408,46.857L40.181,47.7L42.044,47.7L41.817,46.857Z" style="fill-rule:nonzero;"/>
                <path d="M31.983,57.629L34.589,57.629L34.161,56.294C33.825,55.246 33.539,54.311 33.305,53.486L33.254,53.486C32.977,54.504 32.696,55.439 32.411,56.294L31.983,57.629Z" style="fill-rule:nonzero;"/>
                <path d="M41.777,53.82C41.433,53.582 40.917,53.462 40.229,53.462L38.782,53.462L38.782,56.649L40.229,56.649C40.9,56.649 41.412,56.509 41.765,56.233C42.118,55.957 42.293,55.545 42.293,55.001C42.293,54.452 42.121,54.063 41.777,53.82Z" style="fill-rule:nonzero;"/>
                <path d="M67.116,53.462L67.116,56.649L68.564,56.649C69.234,56.649 69.747,56.509 70.099,56.233C70.451,55.957 70.626,55.545 70.626,55.001C70.626,54.454 70.454,54.063 70.108,53.821C69.766,53.584 69.25,53.464 68.561,53.464L67.116,53.462Z" style="fill-rule:nonzero;"/>
                <path d="M90.799,23.319L90.799,20.917L42.659,20.917C42.917,28.956 40.058,35.318 32.849,39.107C25.69,42.87 18.826,41.693 12.265,36.934L12.265,94.465L14.8,94.465C31.356,94.465 47.913,94.498 64.468,94.428C66.86,94.417 69.309,94.168 71.623,93.591C83.359,90.667 90.855,82.204 90.811,69.339C90.758,54 90.799,38.66 90.799,23.319ZM72.166,42.867L74.066,42.867L75.439,46.644C75.564,47.005 75.672,47.349 75.765,47.676L75.929,48.192L75.98,48.192L76.207,47.475C76.341,47.022 76.43,46.745 76.473,46.644L77.807,42.867L79.707,42.867L79.707,51.087L78.133,51.087L78.133,47.827C78.133,47.366 78.188,46.619 78.297,45.586L78.348,45.095L78.297,45.095L77.63,47.021L76.409,50.356L75.427,50.356L74.205,47.021L73.551,45.095L73.501,45.095L73.551,45.586C73.66,46.618 73.715,47.365 73.715,47.827L73.715,51.087L72.166,51.087L72.166,42.867ZM71.561,54.999C71.561,55.627 71.391,56.141 71.05,56.533C70.711,56.928 70.238,57.189 69.634,57.314L71.787,60.976L70.728,60.976L68.676,57.402L67.114,57.402L67.114,60.976L66.182,60.976L66.182,52.705L68.711,52.705C70.611,52.707 71.561,53.471 71.561,54.999ZM63.796,42.867L65.522,42.867L65.522,47.512C65.522,48.309 65.647,48.88 65.899,49.224C66.151,49.568 66.524,49.74 67.02,49.74C67.522,49.74 67.905,49.569 68.166,49.224C68.426,48.88 68.556,48.309 68.556,47.512L68.556,42.867L70.218,42.867L70.218,47.349C70.218,48.683 69.947,49.665 69.405,50.294C68.864,50.924 68.069,51.238 67.02,51.238C65.969,51.238 65.169,50.924 64.622,50.294C64.071,49.665 63.798,48.683 63.798,47.349L63.796,42.867ZM63.691,56.23L63.691,57.011L60.52,57.011L60.52,60.183L64.411,60.183L64.411,60.976L59.59,60.976L59.59,52.705L64.285,52.705L64.285,53.5L60.52,53.5L60.52,56.23L63.691,56.23ZM55.5,42.867L57.273,42.867L59.552,47.135L60.37,48.923L60.421,48.923C60.412,48.78 60.392,48.558 60.357,48.256C60.257,47.282 60.208,46.527 60.208,45.99L60.208,42.868L61.846,42.868L61.846,51.088L60.082,51.088L57.805,46.82L56.973,45.033L56.923,45.033C56.932,45.134 56.952,45.322 56.986,45.599C57.027,45.985 57.064,46.39 57.099,46.814C57.132,47.237 57.15,47.613 57.15,47.94L57.15,51.087L55.5,51.087L55.5,42.867ZM51.786,42.867L53.512,42.867L53.512,51.087L51.786,51.087L51.786,42.867ZM51.482,52.707L52.439,52.707L55.56,58.068L56.465,59.767L56.517,59.767L56.478,59.214C56.47,59.079 56.455,58.796 56.429,58.364C56.404,57.93 56.39,57.539 56.39,57.186L56.39,52.705L57.273,52.705L57.273,60.976L56.314,60.976L53.193,55.615L52.287,53.915L52.236,53.915L52.275,54.521C52.334,55.25 52.363,55.892 52.363,56.445L52.363,60.976L51.482,60.976L51.482,52.707ZM44.158,42.867L50.476,42.867L50.476,44.315L48.172,44.315L48.172,51.087L46.45,51.087L46.45,44.315L44.158,44.315L44.158,42.867ZM43.967,53.501L43.967,52.707L49.971,52.707L49.971,53.501L47.441,53.501L47.441,60.977L46.51,60.977L46.51,53.501L43.967,53.501ZM40.118,42.867L42.17,42.867L44.776,51.087L42.95,51.087L42.396,49.035L39.816,49.035L39.261,51.087L37.5,51.087L40.118,42.867ZM43.451,60.977L42.393,60.977L40.341,57.403L38.78,57.403L38.78,60.977L37.85,60.977L37.85,52.707L40.38,52.707C42.276,52.707 43.225,53.471 43.225,54.999C43.225,55.627 43.055,56.141 42.715,56.533C42.375,56.928 41.903,57.189 41.299,57.314L43.451,60.977ZM32.162,42.867L33.887,42.867L33.887,49.639L37.185,49.639L37.185,51.087L32.163,51.087L32.162,42.867ZM36.641,60.977L35.66,60.977L34.829,58.373L31.745,58.373L30.901,60.977L29.957,60.977L32.789,52.707L33.822,52.707L36.641,60.977ZM24.71,42.867L27.455,42.867C28.445,42.867 29.232,43.071 29.815,43.478C30.398,43.885 30.69,44.55 30.69,45.473C30.69,46.38 30.392,47.063 29.796,47.525C29.2,47.987 28.436,48.217 27.504,48.217L26.435,48.217L26.435,51.087L24.71,51.087L24.71,42.867ZM24.62,52.707L26.911,52.707C27.893,52.707 28.65,52.895 29.183,53.268C29.716,53.643 29.982,54.256 29.982,55.112C29.982,55.942 29.713,56.571 29.176,56.995C28.639,57.42 27.9,57.631 26.96,57.631L25.55,57.631L25.55,60.98L24.62,60.98L24.62,52.707ZM30.187,71.752L30.187,83.463L24.159,83.463L24.159,63.899C26.083,63.899 27.997,63.878 29.909,63.923C30.152,63.93 30.424,64.246 30.62,64.475C33.625,67.946 36.62,71.425 39.617,74.903C39.799,75.114 39.99,75.313 40.323,75.68L40.323,64.231C40.381,64.215 40.439,64.202 40.498,64.19C40.661,64.442 40.829,64.692 40.987,64.948C42.669,67.682 44.357,70.414 46.016,73.162C46.164,73.405 46.267,73.85 46.145,74.058C44.258,77.197 42.33,80.312 40.356,83.521C36.976,79.607 33.644,75.751 30.187,71.752ZM57.738,83.471C57.509,83.466 57.226,83.159 57.075,82.924C56.021,81.282 54.997,79.623 53.962,77.969C53.782,77.684 53.6,77.399 53.363,77.028C52.129,79.007 50.931,80.885 49.788,82.796C49.469,83.329 49.121,83.528 48.494,83.517C46.44,83.472 44.384,83.498 42.178,83.498C43.539,81.278 44.823,79.185 46.106,77.093C46.601,76.285 47.026,75.425 47.609,74.689C48.186,73.957 48.017,73.411 47.574,72.71C45.889,70.043 44.256,67.345 42.606,64.654C42.486,64.461 42.383,64.256 42.228,63.974C42.49,63.943 42.701,63.898 42.911,63.898C44.807,63.894 46.702,63.915 48.596,63.882C49.123,63.873 49.418,64.052 49.689,64.5C50.873,66.452 52.097,68.384 53.372,70.426C54.532,68.564 55.68,66.818 56.723,65.011C57.206,64.17 57.751,63.82 58.748,63.868C60.628,63.959 62.514,63.893 64.58,63.893C64.203,64.526 63.921,65.007 63.63,65.483C62.083,68.001 60.547,70.522 58.975,73.022C58.664,73.514 58.627,73.868 58.954,74.385C59.665,75.514 60.368,76.651 61.067,77.785C61.587,78.63 62.106,79.473 62.623,80.316C63.131,81.144 63.638,81.976 64.147,82.804C64.26,82.992 64.366,83.185 64.543,83.492C62.191,83.494 59.965,83.512 57.738,83.471ZM81.781,75.167C81.341,77.695 79.366,79.15 76.798,79.173C74.25,79.195 71.701,79.19 69.154,79.186C68.573,79.186 67.99,79.184 67.409,79.184L66.385,79.184L66.385,83.17C66.325,83.189 66.266,83.205 66.206,83.224C65.958,82.824 65.708,82.424 65.462,82.025C65.115,81.461 64.77,80.896 64.422,80.334C63.501,78.838 62.578,77.344 61.651,75.85C61.339,75.348 61.03,74.843 60.716,74.34C60.468,73.942 60.373,73.643 60.656,73.19C62.484,70.274 64.269,67.333 66.097,64.419C66.246,64.178 66.609,63.922 66.874,63.922C70.088,63.924 73.308,63.86 76.515,64.038C79.972,64.229 81.767,65.997 82.021,69.444C82.162,71.336 82.105,73.297 81.781,75.167Z" style="fill-rule:nonzero;"/>
                <path d="M28.509,56.439C28.869,56.159 29.05,55.713 29.05,55.111C29.05,54.507 28.865,54.082 28.496,53.833C28.127,53.586 27.552,53.462 26.771,53.462L25.55,53.462L25.55,56.861L26.821,56.861C27.586,56.861 28.148,56.721 28.509,56.439Z" style="fill-rule:nonzero;"/>
                <path d="M29.002,45.473C29.002,45.036 28.866,44.722 28.593,44.529C28.32,44.336 27.902,44.24 27.34,44.24L26.434,44.24L26.434,46.845L27.39,46.845C28.465,46.845 29.002,46.387 29.002,45.473Z" style="fill-rule:nonzero;"/>
            </g>
            <circle cx="16.283" cy="17.663" r="1.664"/>
            <path d="M34.794,22.038C34.721,20.823 33.892,19.812 32.772,19.469C33.451,19.152 33.922,18.463 33.922,17.663C33.922,16.563 33.03,15.671 31.93,15.671C30.83,15.671 29.938,16.563 29.938,17.663C29.938,17.818 29.957,17.969 29.99,18.114C30.13,18.716 30.541,19.214 31.089,19.468C29.968,19.811 29.14,20.822 29.067,22.037L29.067,22.077C29.067,22.171 29.143,22.248 29.238,22.248L34.624,22.248C34.718,22.248 34.795,22.171 34.795,22.077C34.795,22.072 34.795,22.066 34.794,22.061L34.794,22.038ZM30.266,17.663C30.266,16.744 31.011,15.998 31.93,15.998C32.849,15.998 33.594,16.743 33.594,17.663C33.594,18.582 32.849,19.327 31.93,19.327C31.011,19.327 30.266,18.582 30.266,17.663ZM29.408,21.907C29.557,20.647 30.63,19.671 31.929,19.671C33.228,19.671 34.302,20.648 34.451,21.907L29.408,21.907Z" style="fill:none;fill-rule:nonzero;"/>
            <path d="M25.589,25.327C26.756,24.782 27.566,23.597 27.566,22.223C27.566,21.701 27.446,21.207 27.236,20.765C26.688,19.605 25.51,18.799 24.141,18.799C22.699,18.799 21.467,19.693 20.963,20.955C20.806,21.348 20.718,21.774 20.718,22.223C20.718,23.597 21.528,24.782 22.696,25.327C21.498,25.695 20.494,26.506 19.876,27.57C19.501,28.216 19.267,28.954 19.22,29.743C19.219,29.759 19.22,29.774 19.22,29.789L19.22,29.813C19.22,29.975 19.351,30.107 19.513,30.107L28.77,30.107C28.933,30.107 29.065,29.975 29.065,29.813C29.065,29.804 29.064,29.794 29.063,29.785C29.064,29.771 29.065,29.757 29.064,29.743C29.013,28.895 28.745,28.106 28.318,27.427C27.697,26.434 26.733,25.677 25.589,25.327ZM21.282,22.223C21.282,20.643 22.563,19.362 24.142,19.362C25.722,19.362 27.002,20.643 27.002,22.223C27.002,23.802 25.722,25.083 24.142,25.083C22.563,25.083 21.282,23.802 21.282,22.223ZM28.479,29.519L19.808,29.519C20.065,27.354 21.909,25.675 24.142,25.675C26.377,25.675 28.22,27.354 28.479,29.519Z" style="fill:none;fill-rule:nonzero;"/>
            <path d="M19.147,22.078C19.147,22.073 19.147,22.067 19.146,22.062C19.147,22.054 19.147,22.046 19.147,22.038C19.074,20.823 18.245,19.812 17.125,19.469C17.587,19.253 17.953,18.865 18.139,18.386C18.226,18.162 18.275,17.918 18.275,17.663C18.275,16.563 17.383,15.671 16.283,15.671C15.183,15.671 14.291,16.563 14.291,17.663C14.291,18.462 14.762,19.151 15.442,19.469C14.321,19.812 13.493,20.823 13.419,22.038C13.419,22.047 13.419,22.056 13.42,22.064C13.42,22.069 13.419,22.074 13.419,22.078C13.419,22.172 13.496,22.249 13.59,22.249L18.976,22.249C19.07,22.25 19.147,22.172 19.147,22.078ZM13.761,21.907C13.91,20.647 14.982,19.671 16.282,19.671C17.582,19.671 18.655,20.648 18.804,21.907L13.761,21.907Z" style="fill:none;fill-rule:nonzero;"/>
            <circle cx="24.142" cy="22.223" r="2.86"/>
            <path d="M24.142,25.675C21.908,25.675 20.064,27.354 19.808,29.519L28.479,29.519C28.22,27.354 26.377,25.675 24.142,25.675Z" style="fill-rule:nonzero;"/>
            <path d="M16.283,19.671C14.983,19.671 13.911,20.648 13.762,21.907L18.805,21.907C18.655,20.647 17.583,19.671 16.283,19.671Z" style="fill-rule:nonzero;"/>
            <path d="M31.93,19.671C30.63,19.671 29.558,20.648 29.409,21.907L34.453,21.907C34.302,20.647 33.229,19.671 31.93,19.671Z" style="fill-rule:nonzero;"/>
            <circle cx="31.93" cy="17.663" r="1.664"/>
            <g>
                <path d="M29.065,29.742C29.014,28.894 28.746,28.105 28.319,27.426C27.696,26.434 26.733,25.677 25.589,25.326C26.756,24.781 27.566,23.596 27.566,22.222C27.566,21.7 27.446,21.206 27.236,20.764C26.688,19.604 25.51,18.798 24.141,18.798C22.699,18.798 21.467,19.692 20.963,20.954C20.806,21.347 20.718,21.773 20.718,22.222C20.718,23.596 21.528,24.781 22.696,25.326C21.498,25.694 20.494,26.505 19.876,27.569C19.501,28.215 19.267,28.953 19.22,29.742C19.219,29.758 19.22,29.773 19.22,29.788L19.22,29.812C19.22,29.974 19.351,30.106 19.513,30.106L28.77,30.106C28.933,30.106 29.065,29.974 29.065,29.812C29.065,29.803 29.064,29.793 29.063,29.784C29.066,29.771 29.066,29.756 29.065,29.742Z" style="fill:none;fill-rule:nonzero;"/>
                <path d="M19.147,22.078C19.147,22.073 19.147,22.067 19.146,22.062C19.147,22.054 19.147,22.046 19.147,22.038C19.074,20.823 18.245,19.812 17.125,19.469C17.587,19.253 17.953,18.865 18.139,18.386C18.226,18.162 18.275,17.918 18.275,17.663C18.275,16.563 17.383,15.671 16.283,15.671C15.183,15.671 14.291,16.563 14.291,17.663C14.291,18.462 14.762,19.151 15.442,19.469C14.321,19.812 13.493,20.823 13.419,22.038C13.419,22.047 13.419,22.056 13.42,22.064C13.42,22.069 13.419,22.074 13.419,22.078C13.419,22.172 13.496,22.249 13.59,22.249L18.976,22.249C19.07,22.25 19.147,22.172 19.147,22.078Z" style="fill:none;fill-rule:nonzero;"/>
                <path d="M34.794,22.038C34.721,20.823 33.892,19.812 32.772,19.469C33.451,19.152 33.922,18.463 33.922,17.663C33.922,16.563 33.03,15.671 31.93,15.671C30.83,15.671 29.938,16.563 29.938,17.663C29.938,17.818 29.957,17.969 29.99,18.114C30.13,18.716 30.541,19.214 31.089,19.468C29.968,19.811 29.14,20.822 29.067,22.037L29.067,22.077C29.067,22.171 29.143,22.248 29.238,22.248L34.624,22.248C34.718,22.248 34.795,22.171 34.795,22.077C34.795,22.072 34.795,22.066 34.794,22.061L34.794,22.038Z" style="fill:none;fill-rule:nonzero;"/>
                <path d="M24.159,5.527C14.786,5.527 7.187,13.126 7.187,22.498C7.187,31.871 14.786,39.47 24.159,39.47C33.532,39.47 41.13,31.871 41.13,22.498C41.13,13.125 33.532,5.527 24.159,5.527ZM13.59,22.25C13.496,22.25 13.419,22.173 13.419,22.079C13.419,22.075 13.419,22.07 13.42,22.065C13.419,22.056 13.419,22.047 13.419,22.039C13.493,20.824 14.321,19.813 15.442,19.47C14.762,19.153 14.291,18.464 14.291,17.664C14.291,16.564 15.183,15.672 16.283,15.672C17.383,15.672 18.275,16.564 18.275,17.664C18.275,17.919 18.227,18.163 18.139,18.387C17.952,18.865 17.587,19.254 17.125,19.47C18.246,19.813 19.074,20.824 19.147,22.039C19.147,22.047 19.147,22.056 19.146,22.063C19.147,22.068 19.147,22.074 19.147,22.079C19.147,22.173 19.07,22.25 18.976,22.25L13.59,22.25ZM28.771,30.106L19.514,30.106C19.351,30.106 19.221,29.974 19.221,29.812L19.221,29.788C19.22,29.773 19.22,29.758 19.221,29.742C19.268,28.953 19.501,28.215 19.877,27.569C20.495,26.506 21.499,25.694 22.697,25.326C21.529,24.781 20.719,23.596 20.719,22.222C20.719,21.773 20.807,21.347 20.964,20.954C21.468,19.691 22.7,18.798 24.142,18.798C25.511,18.798 26.689,19.604 27.237,20.764C27.446,21.207 27.567,21.7 27.567,22.222C27.567,23.596 26.757,24.781 25.59,25.326C26.734,25.677 27.697,26.433 28.32,27.426C28.746,28.105 29.015,28.894 29.066,29.742C29.067,29.756 29.066,29.77 29.065,29.784C29.066,29.793 29.067,29.803 29.067,29.812C29.066,29.975 28.934,30.106 28.771,30.106ZM34.623,22.25L29.237,22.25C29.142,22.25 29.066,22.173 29.066,22.079L29.066,22.065C29.066,22.056 29.065,22.047 29.066,22.039C29.139,20.824 29.967,19.813 31.088,19.47C30.54,19.215 30.129,18.717 29.989,18.115C29.956,17.97 29.937,17.819 29.937,17.664C29.937,16.564 30.829,15.672 31.929,15.672C33.029,15.672 33.921,16.564 33.921,17.664C33.921,18.463 33.449,19.152 32.771,19.47C33.892,19.813 34.72,20.824 34.793,22.039C34.793,22.047 34.793,22.056 34.792,22.063C34.793,22.068 34.793,22.074 34.793,22.079C34.794,22.172 34.717,22.25 34.623,22.25Z" style="fill-rule:nonzero;"/>
            </g>
        </g>
    </g>
</svg>
