<svg xmlns="http://www.w3.org/2000/svg" width="20" height="19" viewBox="0 0 20 19">
    <path fill="#FFF" fill-rule="evenodd" d="M19.684 18.098h-4.09v-6.532c0-1.642-.593-2.76-2.074-2.76-1.13 0-1.803.754-2.098 1.483-.108.26-.135.625-.135.99v6.819H7.196s.054-11.064 0-12.211h4.091v1.73c.542-.831 1.515-2.016 3.687-2.016 2.692 0 4.71 1.745 4.71 5.496v7zM2.884 4.22H2.86C1.485 4.22.597 3.283.597 2.11.597.912 1.512 0 2.911 0c1.4 0 2.262.912 2.288 2.11 0 1.172-.889 2.11-2.314 2.11zM.84 18.098h4.09V5.887H.84v12.21z"/>
</svg>
