<svg xmlns="http://www.w3.org/2000/svg" width="21" height="17" viewBox="0 0 21 17">
    <path fill="#FFF" fill-rule="evenodd" d="M13.985.389c-2.173.054-3.916 1.82-3.916 3.989 0 .312.033.617.102.91a11.452 11.452 0 0 1-8.292-4.17 3.95 3.95 0 0 0-.545 2.008 3.98 3.98 0 0 0 1.79 3.32 4.04 4.04 0 0 1-1.822-.5v.052c0 1.933 1.387 3.544 3.227 3.911a4.076 4.076 0 0 1-1.816.068 4.021 4.021 0 0 0 3.756 2.772 8.105 8.105 0 0 1-4.994 1.708c-.324 0-.646-.017-.96-.054a11.447 11.447 0 0 0 6.165 1.793c7.4 0 11.446-6.081 11.446-11.355 0-.173-.003-.347-.01-.518a8.112 8.112 0 0 0 2.006-2.065 8.052 8.052 0 0 1-2.31.629 4.004 4.004 0 0 0 1.77-2.208 8.096 8.096 0 0 1-2.556.97A4.033 4.033 0 0 0 14.09.388h-.105z"/>
</svg>
