<svg width="180" height="149" viewBox="0 0 180 149" fill="none" xmlns="http://www.w3.org/2000/svg">
<path d="M143.9 40.365C150.2 40.465 156.2 41.565 161.8 44.265C172 49.265 177.2 57.865 178.8 68.965C179.6 74.365 179.3 79.965 178 85.265C175.4 95.465 169.2 102.565 159.2 105.965C148.6 109.565 138 109.465 127.5 105.165C118.7 101.565 113 94.965 110.5 85.765C108.4 78.065 108.4 70.165 110.6 62.465C114 50.265 122.5 43.565 134.6 41.265C137.7 40.765 140.8 40.665 143.9 40.365ZM155.5 75.365C155.3 71.965 155.1 69.365 154.8 66.865C153.9 59.265 151 56.665 143.4 56.665C143.3 56.665 143.3 56.665 143.2 56.665C137.5 56.765 134.9 58.965 134 64.465C133 70.365 132.9 76.365 133.8 82.165C134.9 90.065 137.8 92.365 145.2 92.065C145.3 92.065 145.3 92.065 145.4 92.065C150.4 91.965 153 90.265 154.1 85.365C155 81.865 155.2 78.165 155.5 75.365Z" fill="#F56322"/>
<path d="M60.0998 101.965C60.0998 103.765 60.0998 105.265 60.0998 106.865C55.2998 106.865 50.5998 106.865 45.8998 106.865C45.8998 106.365 45.7998 105.765 45.7998 105.265C45.7998 98.565 45.7998 91.665 45.7998 84.965C45.7998 83.565 46.1998 83.165 47.5998 83.165C50.7998 83.265 53.8998 83.165 57.0998 83.265C57.8998 83.265 58.7998 83.665 59.2998 84.365C64.4998 91.865 75.2998 95.065 83.6998 92.965C85.1998 92.665 87.1998 92.165 87.2998 90.465C87.2998 89.665 85.2998 88.365 84.0998 87.965C77.4998 85.765 70.6998 83.765 63.9998 81.665C58.9998 80.165 54.3998 78.065 50.6998 74.265C42.0998 65.465 44.1998 50.565 54.7998 44.465C60.4998 41.165 66.6998 40.565 72.9998 40.965C79.2998 41.365 85.1998 43.065 90.5998 46.265C90.6998 46.365 90.8998 46.365 91.3998 46.465C91.3998 45.465 91.2998 44.665 91.3998 43.765C91.4998 43.365 92.0998 42.665 92.3998 42.565C96.4998 42.465 100.7 42.565 104.8 42.565C104.8 49.965 104.8 57.265 104.8 64.665C104.4 64.765 103.9 64.865 103.4 64.865C99.9998 64.865 96.7998 64.965 93.3998 64.865C92.6998 64.865 91.8998 64.465 91.3998 63.865C86.9998 58.965 81.5998 56.365 75.1998 55.565C72.9998 55.365 70.7998 55.465 68.6998 55.465C68.4998 55.465 68.3998 55.465 68.1998 55.565C66.7998 55.965 65.1998 56.365 64.8998 58.065C64.7998 59.765 66.2998 60.465 67.5998 60.865C72.9998 62.565 78.4998 64.265 83.8998 65.765C88.5998 67.165 93.2998 68.565 97.4998 71.265C104.6 75.965 108.1 82.465 106.9 91.065C105.8 98.865 100.8 103.665 93.5998 106.265C82.6998 110.165 72.1998 108.765 62.1998 103.065C61.5998 102.865 60.9998 102.565 60.0998 101.965Z" fill="#F56322"/>
<path d="M41 57.065C37.8 57.065 34.9 57.065 31.8 57.065C31.8 68.465 31.8 79.765 31.8 91.365C34.8 91.365 37.9 91.365 41 91.365C41 96.565 41 101.665 41 106.965C27.4 106.965 13.8 106.965 0 106.965C0 101.865 0 96.865 0 91.565C2.5 91.565 5 91.465 7.4 91.565C8.9 91.665 9.5 91.165 9.4 89.565C9.3 79.465 9.4 69.265 9.4 59.065C9.4 58.565 9.3 57.965 9.3 57.265C6.1 57.265 3.2 57.265 0.1 57.265C0.1 51.965 0.1 46.865 0.1 41.465C13.8 41.465 27.4 41.465 41.1 41.465C41 46.565 41 51.765 41 57.065Z" fill="#F56322"/>
<path d="M42.0001 33.565C45.0001 29.665 48.1001 25.965 51.1001 22.165C48.7001 20.565 46.2001 18.865 43.7001 17.465C43.4001 17.265 42.5001 17.565 42.2001 17.865C36.9001 21.965 32.2001 26.765 28.4001 32.465C27.6001 33.665 26.8001 34.065 25.1001 33.565C38.7001 14.165 56.9001 2.665 80.4001 0.364999C113 -2.835 138 15.565 149.1 33.665C147.8 34.065 146.9 33.765 146.2 32.565C142.4 27.065 137.7 22.265 132.5 17.865C131.6 17.065 131 17.065 130 17.765C127.6 19.365 125.2 20.965 122.6 22.565C125.4 26.165 128.3 29.765 131.2 33.465C129.8 34.165 128.9 33.765 128 32.665C125.8 29.865 123.5 27.165 121.3 24.365C121 24.065 120.2 23.565 119.8 23.865C115.8 25.265 111.8 26.865 107.6 28.465C108.3 30.065 109 31.865 109.7 33.565C108.3 34.065 107.6 33.665 107.1 32.365C105.6 28.665 105.6 28.765 101.7 29.365C97.9001 29.865 94.0001 30.365 90.1001 30.565C88.5001 30.665 87.5001 30.865 87.8001 32.765C87.8001 32.965 87.8001 33.165 87.7001 33.665C87.2001 33.665 86.6001 33.765 86.0001 33.765C85.9001 32.665 85.8001 31.765 85.8001 30.865C82.0001 30.465 78.3001 30.065 74.6001 29.665C72.9001 29.465 71.1001 28.965 69.5001 28.665C68.5001 28.465 67.9001 28.565 67.5001 29.665C67.2001 30.665 66.6001 31.465 66.3001 32.465C65.9001 33.765 65.1001 34.065 63.7001 33.665C64.5001 31.865 65.2001 29.965 66.0001 28.165C63.2001 27.165 60.6001 26.165 58.0001 25.265C57.6001 25.065 57.0001 24.965 56.6001 24.765C53.3001 23.365 53.2001 23.365 50.9001 26.165C49.1001 28.365 47.2001 30.665 45.6001 32.865C44.5001 33.765 43.5001 34.065 42.0001 33.565ZM68.9001 26.265C69.0001 26.465 69.0001 26.665 69.1001 26.965C74.2001 27.465 79.3001 28.065 84.4001 28.665C85.6001 28.765 85.6001 27.965 85.6001 27.165C85.6001 23.165 85.6001 18.965 85.6001 14.965C85.6001 13.865 85.6001 12.865 85.6001 11.765C83.5001 11.465 81.8001 11.065 80.1001 10.965C79.6001 10.965 78.7001 11.265 78.4001 11.865C75.9001 15.365 73.6001 18.865 71.2001 22.265C70.3001 23.565 69.7001 24.965 68.9001 26.265ZM104.4 26.965C104 26.065 103.7 25.565 103.5 24.965C100.8 20.765 98.0001 16.465 95.1001 12.265C94.4001 11.265 93.7001 10.865 92.5001 11.165C91.3001 11.565 90.0001 11.565 88.8001 11.565C87.8001 11.565 87.6001 11.965 87.6001 12.865C87.6001 17.665 87.6001 22.465 87.6001 27.265C87.6001 28.365 88.0001 28.665 89.0001 28.565C90.5001 28.465 92.2001 28.465 93.7001 28.265C97.2001 28.065 100.6 27.465 104.4 26.965ZM104.2 4.265C94.6001 1.265 78.1001 1.565 70.3001 4.265C77.2001 11.165 95.9001 11.865 104.2 4.265ZM96.3001 10.565C96.7001 11.265 97.2001 11.765 97.5001 12.165C100.1 16.065 102.7 20.065 105.2 24.165C106.7 26.565 106 26.565 108.8 25.665C112.2 24.665 115.4 23.365 119 22.065C118.2 21.265 117.9 20.765 117.4 20.465C113.2 17.065 108.9 13.865 104.7 10.465C102.9 8.965 101 8.365 98.8001 9.765C98.2001 10.065 97.4001 10.165 96.3001 10.565ZM76.8001 10.265C75.4001 9.565 74.0001 8.965 72.6001 8.465C72.2001 8.365 71.4001 8.465 71.1001 8.665C66.1001 12.365 61.2001 16.065 56.3001 19.865C55.8001 20.265 55.3001 20.865 54.6001 21.565C57.8001 22.765 60.6001 23.965 63.4001 24.965C66.8001 26.165 66.8001 26.065 68.5001 22.965C68.7001 22.665 68.8001 22.465 69.0001 22.065C71.5001 18.265 74.2001 14.365 76.8001 10.265ZM104 7.165C104.2 7.465 104.3 7.565 104.4 7.665C109.9 11.465 115.6 15.365 120.3 20.265C120.5 20.465 121.2 20.665 121.4 20.565C124.1 19.065 126.7 17.565 129.6 15.765C122.6 10.765 115.5 7.165 107.6 4.865C107.3 4.765 106.7 4.865 106.4 5.065C105.6 5.865 104.8 6.465 104 7.165ZM44.8001 15.865C47.3001 17.365 49.5001 18.665 51.5001 19.965C52.4001 20.465 52.8001 20.165 53.6001 19.665C58.4001 15.765 63.3001 11.965 68.2001 8.165C68.7001 7.765 69.3001 7.365 69.8001 6.965C68.5001 5.265 67.1001 4.465 65.0001 5.465C64.0001 5.865 62.9001 6.165 62.0001 6.565C56.0001 8.765 50.3001 11.765 44.8001 15.865Z" fill="#F56322"/>
<path d="M25 115.065C26.6 114.565 27.5 114.865 28.3 116.065C32 121.365 36.5 126.065 41.6 130.265C42.5 131.065 43.1 131.165 44.2 130.365C46.4 128.765 48.8 127.365 51.2 125.765C48.4 122.165 45.4 118.565 42.5 114.865C44.1 114.465 45 114.665 45.9 115.865C47.9 118.465 50.1 121.065 52.2 123.665C52.9 124.565 53.5 124.765 54.6 124.165C58.3 122.665 62 121.265 65.9 119.665C65.2 118.165 64.6 116.465 63.9 114.765C65.4 114.065 66.1 114.765 66.6 116.065C67.9 119.265 67.9 119.065 71.4 118.665C75.3 118.165 79.3 117.665 83.4 117.265C84.2 117.165 84.9 117.165 85.8 117.065C85.9 116.265 85.9 115.565 86 114.765C86.5 114.765 87.1 114.765 87.7 114.765C87.8 115.565 87.9 116.265 88 117.065C90.8 117.265 93.5 117.365 96.3 117.765C98.9 118.065 101.5 118.465 104.1 118.965C105.2 119.165 105.7 118.965 106.1 117.965C106.3 117.265 106.8 116.665 107 115.865C107.4 114.565 108.2 114.265 109.6 114.765C108.9 116.265 108.4 117.765 107.6 119.465C108.1 119.665 108.7 119.765 109.2 119.965C112.5 121.165 115.8 122.265 119 123.565C120.2 124.065 121 123.865 121.7 122.865C123.5 120.465 125.5 118.065 127.5 115.765C128.7 114.365 128.7 114.265 131 114.565C128.2 118.165 125.5 121.565 122.7 124.865C125.5 126.665 128.4 128.565 131.2 130.265C131.5 130.465 132.5 130.165 132.8 129.865C137.9 125.865 142.4 121.065 146.1 115.765C147 114.565 147.7 114.065 149.5 114.565C134.7 135.565 114.8 147.365 89.2 147.965C61.9 149.065 40.8 137.265 25 115.065ZM69.2 121.365C69 121.565 68.9 121.665 68.7 121.865C72.1 126.765 75.3 131.665 78.7 136.465C78.9 136.665 79.2 136.965 79.5 136.965C81.6 136.765 83.5 136.265 85.6 136.065C85.6 130.365 85.6 124.965 85.6 119.365C79.9 119.365 74.5 120.165 69.2 121.365ZM104.4 121.365C104 121.165 103.7 121.065 103.4 120.965C98.5 120.465 93.7 119.865 88.8 119.365C87.6 119.265 87.6 120.065 87.6 120.865C87.6 124.465 87.6 127.965 87.6 131.565C87.6 133.065 87.6 134.565 87.6 136.165C89.3 136.365 91 136.365 92.5 136.665C93.8 136.965 94.5 136.565 95.2 135.565C97.3 132.565 99.4 129.465 101.5 126.365C102.5 124.865 103.4 123.065 104.4 121.365ZM104.9 144.465C96.5 136.165 76.9 136.765 69.6 144.465C81.3 147.365 93.1 147.365 104.9 144.465ZM119.2 125.965C115.2 124.565 111.6 123.365 108 122.165C106.9 121.765 106.4 122.065 105.7 123.065C103.1 127.465 100.3 131.665 97.5 135.865C97.2 136.365 96.8 136.865 96.4 137.465C97.9 138.165 99.3 138.765 100.8 139.165C101.3 139.365 102.3 139.265 102.8 138.965C106.9 136.065 111.1 132.965 115.1 129.965C116.4 128.865 117.6 127.565 119.2 125.965ZM76.8 137.765C76.8 137.665 76.8 137.565 76.8 137.565C73.6 132.665 70.5 127.665 67.2 122.765C67 122.465 66.4 122.265 66.1 122.265C62.3 123.565 58.5 124.865 54.6 126.265C55 126.765 55 127.065 55.3 127.265C60.1 132.165 65.7 135.865 71.4 139.665C71.7 139.865 72.2 139.865 72.5 139.765C73.8 139.065 75.4 138.465 76.8 137.765ZM103.8 140.765C104.7 141.465 105.3 141.865 105.9 142.365C106.9 143.565 108 143.665 109.5 143.165C115.6 141.065 121.2 138.365 126.7 134.865C127.8 134.165 128.8 133.465 130.2 132.465C127.3 130.765 124.8 129.165 122.3 127.665C121.4 127.165 120.9 127.365 120.1 127.965C116.3 131.265 112.4 134.365 108.6 137.565C106.9 138.665 105.5 139.665 103.8 140.765ZM44.6 132.365C44.8 132.665 44.8 132.865 44.9 132.865C45.3 133.165 45.7 133.565 46.1 133.765C51.6 137.665 57.7 140.665 64.2 142.765C67.1 143.765 67.6 143.665 69.6 141.065C69.5 140.965 69.5 140.865 69.4 140.865C63.7 136.965 58 133.165 53.2 128.165C53 127.965 52.3 127.765 52 127.965C49.6 129.265 47.1 130.865 44.6 132.365Z" fill="#F56322"/>
</svg>
