<svg width="508" height="508" viewBox="0 0 508 508" fill="none" xmlns="http://www.w3.org/2000/svg">
<g clip-path="url(#clip0)">
<path d="M253.476 358.88C229.236 358.88 209.516 378.536 209.516 402.684C209.516 426.84 229.236 446.504 253.476 446.504C277.724 446.504 297.444 426.84 297.444 402.684C297.444 378.536 277.72 358.88 253.476 358.88Z" fill="white"/>
<path d="M360.732 299.197C332.112 270.593 294.016 254.833 253.476 254.833C213.092 254.833 175.1 270.489 146.488 298.913C134.932 310.413 134.912 329.149 146.44 340.669C152.04 346.277 159.496 349.357 167.432 349.357C175.332 349.357 182.76 346.293 188.352 340.733C205.764 323.429 228.892 313.897 253.476 313.897C278.152 313.897 301.344 323.489 318.768 340.897C324.368 346.489 331.82 349.577 339.748 349.577C347.656 349.577 355.08 346.513 360.676 340.953C372.248 329.452 372.268 310.725 360.732 299.197Z" fill="white"/>
<path d="M498.512 161.872C433.08 96.601 346.052 60.665 253.476 60.665C161.024 60.665 74.084 96.517 8.672 161.633C-2.884 173.133 -2.892 191.869 8.656 203.389C14.252 208.969 21.696 212.037 29.616 212.037C37.532 212.037 44.968 208.981 50.564 203.405C104.784 149.437 176.844 119.709 253.476 119.709C330.22 119.709 402.352 149.497 456.584 203.609C462.18 209.193 469.636 212.273 477.552 212.273C485.464 212.273 492.9 209.201 498.492 203.633C510.052 192.124 510.064 173.381 498.512 161.872Z" fill="white"/>
<path d="M427.876 232.256C381.3 185.788 319.364 160.2 253.476 160.2C187.708 160.2 125.864 185.708 79.3279 232.012C73.7239 237.584 70.6399 244.996 70.6279 252.888C70.6279 260.772 73.6999 268.192 79.2959 273.772C84.8919 279.356 92.3399 282.436 100.26 282.436C108.168 282.436 115.604 279.364 121.208 273.804C156.56 238.632 203.536 219.256 253.476 219.256C303.52 219.256 350.56 238.7 385.936 273.992C391.54 279.584 398.984 282.664 406.908 282.664C414.82 282.664 422.26 279.592 427.848 274.024C433.444 268.452 436.536 261.04 436.54 253.148C436.548 245.256 433.468 237.844 427.876 232.256Z" fill="white"/>
</g>
<defs>
<clipPath id="clip0">
<rect width="507.169" height="507.169" fill="white"/>
</clipPath>
</defs>
</svg>
