<svg xmlns="http://www.w3.org/2000/svg" height="512" viewBox="0 0 32 32" width="512" fill="#F56322">
  <g id="Layer_17" data-name="Layer 17">
    <path d="m25 9v13a3 3 0 0 1 -3 3h-12a3 3 0 0 1 -3-3v-13a3 3 0 0 1 3-3h12a3 3 0 0 1 3 3zm-13-7a1 1 0 0 0 -2 0v3h2zm5 1a1 1 0 0 0 -2 0v2h2zm5-1a1 1 0 0 0 -2 0v3h2zm-12 28a1 1 0 0 0 2 0v-4h-2zm5-1a1 1 0 0 0 2 0v-3h-2zm5 1a1 1 0 0 0 2 0v-4h-2zm11-19a1 1 0 0 0 -1-1h-4v2h4a1 1 0 0 0 1-1zm-1 5a1 1 0 0 0 -1-1h-3v2h3a1 1 0 0 0 1-1zm0 4h-4v2h4a1 1 0 0 0 0-2zm-29-9a1 1 0 0 0 1 1h4v-2h-4a1 1 0 0 0 -1 1zm1 5a1 1 0 0 0 1 1h3v-2h-3a1 1 0 0 0 -1 1zm-1 4a1 1 0 0 0 1 1h4v-2h-4a1 1 0 0 0 -1 1z"></path>
  </g>
</svg>