<svg xmlns="http://www.w3.org/2000/svg" xmlns:xlink="http://www.w3.org/1999/xlink" id="Layer_1" x="0px" y="0px" viewBox="0 0 512 512" style="enable-background:new 0 0 512 512;" xml:space="preserve">
<style type="text/css">
	.st0{fill:#F56322;}
</style>
<g id="surface1">
	<path class="st0" d="M41.5,30C35.2,30,30,35.2,30,41.5v52c0,6.3,5.2,11.5,11.5,11.5h52c6.3,0,11.5-5.2,11.5-11.5v-52   c0-6.3-5.2-11.5-11.5-11.5H41.5z"></path>
	<path class="st0" d="M93.5,407h-52c-6.3,0-11.5,5.2-11.5,11.5v52c0,6.3,5.2,11.5,11.5,11.5h52c6.3,0,11.5-5.2,11.5-11.5v-52   C105,412.2,99.8,407,93.5,407z"></path>
	<path class="st0" d="M396.5,135h96c10.8,0,19.5-8.7,19.5-19.5v-96C512,8.7,503.3,0,492.5,0h-96C385.7,0,377,8.7,377,19.5V60h-90   c-4.1,0-7.5,3.4-7.5,7.5v99h-41v-29.3c8.7-3.1,15-11.4,15-21.2c0-12.4-10.1-22.5-22.5-22.5s-22.5,10.1-22.5,22.5   c0,9.8,6.3,18.1,15,21.2v29.3H190c-13,0-23.5,10.5-23.5,23.5v43.5H75V135h40.5c10.8,0,19.5-8.7,19.5-19.5V96c0-4.1-3.4-7.5-7.5-7.5   S120,91.9,120,96v19.5c0,2.5-2,4.5-4.5,4.5h-96c-2.5,0-4.5-2-4.5-4.5v-96c0-2.5,2-4.5,4.5-4.5h96c2.5,0,4.5,2,4.5,4.5V64   c0,4.1,3.4,7.5,7.5,7.5c4.1,0,7.5-3.4,7.5-7.5V19.5C135,8.7,126.3,0,115.5,0h-96C8.7,0,0,8.7,0,19.5v96C0,126.3,8.7,135,19.5,135   H60v106c0,4.1,3.4,7.5,7.5,7.5h99v32h-10.3c-3.1-8.7-11.4-15-21.2-15c-12.4,0-22.5,10.1-22.5,22.5s10.1,22.5,22.5,22.5   c9.8,0,18.1-6.3,21.2-15h10.3V322c0,13,10.5,23.5,23.5,23.5h33.5v89.1H135v-38.1c0-10.8-8.7-19.5-19.5-19.5h-96   C8.7,377,0,385.7,0,396.5v96C0,503.3,8.7,512,19.5,512h96c10.8,0,19.5-8.7,19.5-19.5v-42.9h96c4.1,0,7.5-3.4,7.5-7.5v-96.6h41v33.3   c-8.7,3.1-15,11.4-15,21.2c0,12.4,10.1,22.5,22.5,22.5s22.5-10.1,22.5-22.5c0-9.8-6.3-18.1-15-21.2v-33.3H322   c13,0,23.5-10.5,23.5-23.5v-51.1H437V377h-40.5c-10.8,0-19.5,8.7-19.5,19.5V416c0,4.1,3.4,7.5,7.5,7.5s7.5-3.4,7.5-7.5v-19.5   c0-2.5,2-4.5,4.5-4.5h96c2.5,0,4.5,2,4.5,4.5v96c0,2.5-2,4.5-4.5,4.5h-96c-2.5,0-4.5-2-4.5-4.5v-44.6c0-4.1-3.4-7.5-7.5-7.5   s-7.5,3.4-7.5,7.5v44.6c0,10.8,8.7,19.5,19.5,19.5h96c10.8,0,19.5-8.7,19.5-19.5v-96c0-10.8-8.7-19.5-19.5-19.5H452V263.4   c0-4.1-3.4-7.5-7.5-7.5h-99v-25.4h35.7c3.1,8.7,11.4,15,21.2,15c12.4,0,22.5-10.1,22.5-22.5s-10.1-22.5-22.5-22.5   c-9.8,0-18.1,6.3-21.2,15h-35.7V190c0-13-10.5-23.5-23.5-23.5h-27.5V75H377v40.5C377,126.3,385.7,135,396.5,135z M231,108.5   c4.1,0,7.5,3.4,7.5,7.5s-3.4,7.5-7.5,7.5s-7.5-3.4-7.5-7.5S226.9,108.5,231,108.5z M135,295.5c-4.1,0-7.5-3.4-7.5-7.5   s3.4-7.5,7.5-7.5s7.5,3.4,7.5,7.5S139.1,295.5,135,295.5z M120,492.5c0,2.5-2,4.5-4.5,4.5h-96c-2.5,0-4.5-2-4.5-4.5v-96   c0-2.5,2-4.5,4.5-4.5h96c2.5,0,4.5,2,4.5,4.5V492.5z M287,407.5c-4.1,0-7.5-3.4-7.5-7.5s3.4-7.5,7.5-7.5s7.5,3.4,7.5,7.5   S291.1,407.5,287,407.5z M402.4,215.5c4.1,0,7.5,3.4,7.5,7.5s-3.4,7.5-7.5,7.5s-7.5-3.4-7.5-7.5S398.3,215.5,402.4,215.5z    M396.5,15h96c2.5,0,4.5,2,4.5,4.5v96c0,2.5-2,4.5-4.5,4.5h-96c-2.5,0-4.5-2-4.5-4.5V67.7c0-0.1,0-0.1,0-0.2s0-0.1,0-0.2V19.5   C392,17,394,15,396.5,15z"></path>
	<path class="st0" d="M418.5,105h52c6.3,0,11.5-5.2,11.5-11.5v-52c0-6.3-5.2-11.5-11.5-11.5h-52c-6.3,0-11.5,5.2-11.5,11.5v52   C407,99.8,412.2,105,418.5,105z"></path>
	<path class="st0" d="M470.5,482c6.3,0,11.5-5.2,11.5-11.5v-52c0-6.3-5.2-11.5-11.5-11.5h-52c-6.3,0-11.5,5.2-11.5,11.5v52   c0,6.3,5.2,11.5,11.5,11.5H470.5z"></path>
</g>
</svg>