<svg width="384" height="512" viewBox="0 0 384 512" fill="none" xmlns="http://www.w3.org/2000/svg">
<path d="M192.009 150.81V218.095L240.073 188.911L192.009 150.81Z" fill="white"/>
<path d="M192 0C86.123 0 0 86.144 0 192V320C0 425.856 86.123 512 192 512C297.877 512 384 425.856 384 320V192C384 86.144 297.877 0 192 0ZM290.731 335.851L184.064 421.931C180.203 425.046 175.467 426.667 170.667 426.667C167.552 426.667 164.395 425.984 161.472 424.576C154.069 421.035 149.333 413.547 149.333 405.333V307.498L122.133 334.719C117.973 338.879 112.512 340.948 107.05 340.948C101.589 340.948 96.127 338.879 91.967 334.719C83.626 326.378 83.626 312.874 91.967 304.532L140.586 255.913L91.498 206.249C83.221 197.844 83.306 184.34 91.669 176.062C100.096 167.785 113.578 167.87 121.834 176.233L149.333 204.073V106.665C149.333 98.473 154.026 91.028 161.386 87.465C168.746 83.881 177.535 84.884 183.914 89.94L290.581 174.527C296.064 178.858 299.072 185.599 298.624 192.575C298.197 199.551 294.379 205.844 288.405 209.471L212.586 255.508L288.319 300.948C294.292 304.532 298.132 310.804 298.623 317.759C299.114 324.714 296.149 331.456 290.731 335.851Z" fill="white"/>
<path d="M192.009 360.7L240.179 321.83L192.009 292.924V360.7Z" fill="white"/>
</svg>
