<svg xmlns="http://www.w3.org/2000/svg" xmlns:xlink="http://www.w3.org/1999/xlink" id="Capa_1" x="0px" y="0px" viewBox="0 0 512 512" style="enable-background:new 0 0 512 512;" xml:space="preserve" fill="#0057a4">
<g>
	<g>
		<g>
			<polygon points="256.009,150.81 256.009,218.095 304.073,188.911    "></polygon>
			<path d="M256,0C150.123,0,64,86.144,64,192v128c0,105.856,86.123,192,192,192s192-86.144,192-192V192C448,86.144,361.877,0,256,0     z M354.731,335.851l-106.667,86.08c-3.861,3.115-8.597,4.736-13.397,4.736c-3.115,0-6.272-0.683-9.195-2.091     c-7.403-3.541-12.139-11.029-12.139-19.243v-97.835l-27.2,27.221c-4.16,4.16-9.621,6.229-15.083,6.229     c-5.461,0-10.923-2.069-15.083-6.229c-8.341-8.341-8.341-21.845,0-30.187l48.619-48.619l-49.088-49.664     c-8.277-8.405-8.192-21.909,0.171-30.187c8.427-8.277,21.909-8.192,30.165,0.171l27.499,27.84v-97.408     c0-8.192,4.693-15.637,12.053-19.2c7.36-3.584,16.149-2.581,22.528,2.475l106.667,84.587c5.483,4.331,8.491,11.072,8.043,18.048     c-0.427,6.976-4.245,13.269-10.219,16.896l-75.819,46.037l75.733,45.44c5.973,3.584,9.813,9.856,10.304,16.811     S360.149,331.456,354.731,335.851z"></path>
			<polygon points="256.009,360.7 304.179,321.83 256.009,292.924    "></polygon>
		</g>
	</g>
</g>
</svg>