<svg width="469" height="554" viewBox="0 0 469 554" fill="none" xmlns="http://www.w3.org/2000/svg">
<path d="M34.7739 179.141C25.2449 179.141 17.1599 182.464 10.5139 189.11C3.86795 195.756 0.543945 203.731 0.543945 213.039V355.953C0.543945 365.494 3.86695 373.572 10.5139 380.219C17.1599 386.865 25.2449 390.189 34.7739 390.189C44.2959 390.189 52.3319 386.866 58.8749 380.219C65.4049 373.573 68.6789 365.494 68.6789 355.953V213.039C68.6789 203.73 65.3559 195.756 58.7089 189.11C52.0619 182.464 44.0819 179.141 34.7739 179.141Z" fill="white"/>
<path d="M309.972 50.847L333.57 7.31499C335.119 4.43299 334.568 2.22299 331.912 0.668992C329.029 -0.671008 326.814 0.00799155 325.266 2.65799L301.338 46.538C280.283 37.229 258.014 32.566 234.531 32.566C211.043 32.566 188.772 37.23 167.725 46.538L143.796 2.65799C142.241 0.00799155 140.026 -0.665008 137.15 0.668992C134.488 2.22999 133.937 4.43299 135.492 7.31499L159.091 50.847C135.162 63.05 116.104 80.045 101.924 101.869C87.7439 123.705 80.6509 147.567 80.6509 173.497H388.077C388.077 147.573 380.983 123.71 366.804 101.869C352.623 80.045 333.675 63.05 309.972 50.847ZM173.539 114.165C170.987 116.723 167.939 117.996 164.396 117.996C160.846 117.996 157.86 116.723 155.424 114.165C152.988 111.619 151.77 108.583 151.77 105.028C151.77 101.485 152.988 98.443 155.424 95.891C157.86 93.345 160.853 92.072 164.396 92.072C167.939 92.072 170.987 93.345 173.539 95.891C176.085 98.449 177.364 101.485 177.364 105.028C177.357 108.577 176.079 111.619 173.539 114.165ZM313.625 114.165C311.184 116.723 308.191 117.996 304.654 117.996C301.103 117.996 298.056 116.723 295.509 114.165C292.958 111.619 291.685 108.583 291.685 105.028C291.685 101.485 292.958 98.443 295.509 95.891C298.056 93.345 301.103 92.072 304.654 92.072C308.197 92.072 311.183 93.345 313.625 95.891C316.063 98.449 317.279 101.485 317.279 105.028C317.279 108.577 316.062 111.619 313.625 114.165Z" fill="white"/>
<path d="M81.9707 406.804C81.9707 417.006 85.5137 425.642 92.6007 432.729C99.6937 439.816 108.33 443.359 118.525 443.359H143.121L143.458 518.813C143.458 528.341 146.781 536.432 153.427 543.079C160.073 549.726 168.054 553.049 177.356 553.049C186.879 553.049 194.969 549.726 201.616 543.079C208.263 536.432 211.586 528.342 211.586 518.813V443.366H257.45V518.813C257.45 528.341 260.772 536.432 267.419 543.079C274.066 549.726 282.149 553.049 291.679 553.049C301.202 553.049 309.292 549.726 315.939 543.079C322.586 536.432 325.908 528.342 325.908 518.813V443.366H350.836C360.805 443.366 369.33 439.822 376.43 432.735C383.516 425.648 387.061 417.012 387.061 406.811V185.45H81.9707V406.804Z" fill="white"/>
<path d="M434.275 179.141C424.966 179.141 416.992 182.415 410.345 188.945C403.699 195.487 400.376 203.523 400.376 213.039V355.953C400.376 365.494 403.698 373.572 410.345 380.219C416.992 386.866 424.972 390.189 434.275 390.189C443.798 390.189 451.888 386.866 458.535 380.219C465.182 373.572 468.504 365.494 468.504 355.953V213.039C468.504 203.522 465.182 195.487 458.535 188.945C451.888 182.415 443.798 179.141 434.275 179.141Z" fill="white"/>
</svg>
