<svg xmlns="http://www.w3.org/2000/svg" data-name="Layer 1" height="128" id="Layer_1" viewBox="0 0 128 128" width="128" fill="#F56322">
<path d="M123.44,56.72406c-.22833-1.91339.744-3.72882,1.60132-5.33.493-.921,1.2384-2.31244,1.11292-2.82574-.13257-.5437-1.45361-1.44177-2.32812-2.03571-1.48187-1.00726-3.16132-2.1485-3.82965-3.92181-.67487-1.79254-.16681-3.78363.28125-5.54071.25958-1.01788.65173-2.55609.40375-3.0318-.25555-.48889-1.74646-1.0387-2.7334-1.40216-1.68347-.62091-3.59222-1.32452-4.6673-2.89069-1.08014-1.5733-1.06-3.62628-1.04236-5.43713.01056-1.054.02618-2.64648-.33215-3.05365-.36041-.40918-1.934-.58484-2.97583-.70111-1.78577-.199-3.80994-.42493-5.22931-1.69208-1.41632-1.26562-1.881-3.26025-2.29083-5.02032-.23993-1.02905-.60181-2.584-1.0509-2.89679a1.7924,1.7924,0,0,0-.95514-.15991,17.09163,17.09163,0,0,0-2.08923.19543,20.24581,20.24581,0,0,1-2.63153.231,5.98822,5.98822,0,0,1-2.85736-.61987c-1.66986-.88489-2.59222-2.70538-3.40625-4.31116C87.941,5.33508,87.21771,3.908,86.7016,3.71106a.71633.71633,0,0,0-.2384-.03149,9.30914,9.30914,0,0,0-2.69153.80212,11.82479,11.82479,0,0,1-4.23285,1.09558,5.01337,5.01337,0,0,1-1.20264-.14166c-1.8241-.45129-3.1507-1.99005-4.321-3.3476C73.32208,1.28436,72.27417.06952,71.68146,0A7.50444,7.50444,0,0,0,69.0766,1.45093C67.59729,2.50385,65.92084,3.69684,64,3.69684s-3.59729-1.193-5.0766-2.24591A7.28231,7.28231,0,0,0,56.28528.002h-.002c-.55695.0675-1.60486,1.28235-2.29785,2.086-1.17041,1.35754-2.497,2.8963-4.32111,3.3476a5.01471,5.01471,0,0,1-1.20209.14166,11.831,11.831,0,0,1-4.2334-1.09607,9.31643,9.31643,0,0,0-2.69153-.80164.73232.73232,0,0,0-.23792.03046c-.51562.19751-1.23889,1.62457-1.71722,2.56885-.81451,1.60626-1.73688,3.42676-3.40674,4.3111a5.9861,5.9861,0,0,1-2.85736.62042,20.27359,20.27359,0,0,1-2.63257-.23151,17.08927,17.08927,0,0,0-2.08923-.1955,1.78964,1.78964,0,0,0-.9541.15942c-.44861.31226-.81049,1.86725-1.05042,2.89575-.40979,1.76062-.87451,3.75574-2.29181,5.02136-1.41888,1.26715-3.4436,1.4931-5.22937,1.69208-1.04132.11627-2.61542.29193-2.97528.70062-.3584.4071-.34277,2.00018-.3327,3.05414.01764,1.81085.03784,3.86389-1.0423,5.4361-1.07513,1.56671-2.98389,2.27032-4.66736,2.89124-.98688.364-2.47833.91376-2.73389,1.40265-.248.47571.14417,2.01392.40375,3.0318.44806,1.75708.95618,3.74866.28027,5.54126-.66785,1.77277-2.34729,2.91455-3.82916,3.92175-.874.594-2.19556,1.49207-2.32812,2.03625-.125.51324.61993,1.9043,1.11292,2.8252C3.816,52.99469,4.78833,54.81012,4.56,56.72406c-.22382,1.87482-1.57916,3.38409-2.77521,4.71625C1.03174,62.279,0,63.42786,0,64c0,.57159,1.03125,1.72046,1.78479,2.55914,1.196,1.33215,2.55139,2.84192,2.77521,4.7168.22833,1.91339-.744,3.72882-1.60132,5.33-.493.9209-1.2384,2.31244-1.11292,2.82568.13257.5437,1.45361,1.44177,2.32813,2.03577,1.48187,1.0072,3.16132,2.14844,3.82965,3.92175.67487,1.7926.16681,3.78369-.28125,5.54071-.25958,1.01788-.65173,2.55615-.40375,3.0318.25555.48889,1.74646,1.0387,2.7334,1.40222,1.68347.62085,3.59222,1.32452,4.6673,2.89069,1.08014,1.57324,1.06,3.62628,1.04236,5.43713-.01056,1.05389-.02618,2.64648.33215,3.05365.36041.40918,1.934.58484,2.97583.701,1.78577.199,3.80994.42493,5.22931,1.69208,1.41632,1.26563,1.881,3.26025,2.29083,5.02039.23993,1.02905.60181,2.584,1.0509,2.89673a1.79168,1.79168,0,0,0,.95514.15991,17.07953,17.07953,0,0,0,2.08923-.19543,20.25645,20.25645,0,0,1,2.63153-.231,5.98822,5.98822,0,0,1,2.85736.61981c1.66986.88489,2.59222,2.70538,3.40625,4.31116.47882.94476,1.20215,2.37183,1.71826,2.56885a.717.717,0,0,0,.23792.03143,9.32029,9.32029,0,0,0,2.69153-.80212,11.82981,11.82981,0,0,1,4.23334-1.09552,5.01646,5.01646,0,0,1,1.20264.1416c1.8241.45135,3.1507,1.99011,4.321,3.3476.69305.80365,1.741,2.01849,2.33368,2.08807a7.499,7.499,0,0,0,2.60437-1.45093c1.4798-1.05292,3.15625-2.246,5.07709-2.246,1.92035,0,3.59729,1.19305,5.0766,2.246A7.50217,7.50217,0,0,0,71.68042,128l.03632-.00208c.55695-.0675,1.60486-1.28235,2.29785-2.086,1.17041-1.35748,2.497-2.89624,4.32111-3.3476a5.01781,5.01781,0,0,1,1.20209-.1416,11.831,11.831,0,0,1,4.2334,1.09607,9.318,9.318,0,0,0,2.69153.80157.73064.73064,0,0,0,.23792-.03046c.51563-.19745,1.23889-1.62451,1.71722-2.56879.81451-1.60626,1.73688-3.42682,3.40674-4.31116a5.98682,5.98682,0,0,1,2.85736-.62036,20.27381,20.27381,0,0,1,2.63257.23151,17.08824,17.08824,0,0,0,2.08923.19543,1.78892,1.78892,0,0,0,.9541-.15942c.44861-.31219.81049-1.86719,1.05042-2.89575.40979-1.76056.87451-3.75574,2.29181-5.02136,1.41888-1.26715,3.4436-1.493,5.22937-1.69208,1.04132-.11621,2.61542-.29187,2.97528-.70056.3584-.40717.34277-2.00024.3327-3.05414-.01764-1.81085-.03784-3.86389,1.0423-5.43616,1.07513-1.56665,2.98389-2.27032,4.66736-2.89117.98688-.364,2.47833-.91382,2.73389-1.40271.248-.47565-.14417-2.01392-.40375-3.0318-.44806-1.757-.95618-3.74866-.28027-5.5412.66785-1.77283,2.34729-2.91455,3.82916-3.92175.874-.594,2.19556-1.49207,2.32813-2.03632.125-.51324-.61993-1.90424-1.11292-2.82513-.85736-1.60175-1.82965-3.41718-1.60132-5.33105.22382-1.87488,1.57916-3.38416,2.77521-4.71631C126.96826,65.721,128,64.57214,128,64c0-.57166-1.03125-1.72052-1.78479-2.5592C125.01917,60.1087,123.66382,58.59888,123.44,56.72406Zm-77.32526-34.644.46875-.228a2,2,0,1,1,1.73242,3.60547l-.43066.20947a2,2,0,0,1-1.77051-3.58691Zm3.1377,83.13135a1.99871,1.99871,0,0,1-2.66895.93652l-.46875-.228a2,2,0,0,1,1.77051-3.58691l.43066.20947A2,2,0,0,1,49.25244,105.21143ZM52.443,92H32.74622a4.82824,4.82824,0,0,1,0-9.65509h5.10217V55.75531a4.69288,4.69288,0,0,1-6.41479.816,4.88107,4.88107,0,0,1-1.07391-6.7392l8.38513-11.82751a4.70084,4.70084,0,0,1,5.30841-1.7702,4.81975,4.81975,0,0,1,3.2876,4.59369V82.34491H52.443A4.82824,4.82824,0,0,1,52.443,92Zm5.27576,15.56885a2.00109,2.00109,0,0,1-1.95508,1.5874c-.13672,0-1.0874-.19043-1.4209-.27051a1.99983,1.99983,0,1,1,.93164-3.88965q.44751.10693.90039.20264A2.00028,2.00028,0,0,1,57.71875,107.56885ZM56.1748,22.80127c-.30176.06348-1.21387.2583-1.36768.2583a2.00021,2.00021,0,0,1-.46436-3.94531q.50024-.12012,1.00586-.22705a2.00015,2.00015,0,0,1,.82617,3.91406Zm22.57861.104a1.999,1.999,0,0,1,2.67236-.92627l.47314.23438a2,2,0,1,1-1.79785,3.57324l-.42139-.209A1.99947,1.99947,0,0,1,78.75342,22.90527Zm-8.45557-2.43115a1.99974,1.99974,0,0,1,2.38086-1.52637q.5061.1106,1.00586.23389a2.0001,2.0001,0,1,1-.96191,3.88281q-.446-.1106-.89844-.20947A1.99926,1.99926,0,0,1,70.29785,20.47412Zm-6.79395-2.47266s.80859,0,1.02686.00391a1.99989,1.99989,0,0,1-.03223,3.99951l-.0332-.00049-.92822-.00293a2.00007,2.00007,0,1,1-.0332-4Zm1.02686,91.99316c-.21827.00391-1.02686.00391-1.02686.00391a2,2,0,0,1,.01611-4h.01709l.92822-.00293.0332-.00049a1.99989,1.99989,0,0,1,.03223,3.99951Zm9.15381-1.17627q-.50024.12378-1.00586.23389a1.99979,1.99979,0,0,1-.85449-3.90723q.4519-.09888.89844-.20947a2.00009,2.00009,0,1,1,.96191,3.88281Zm8.21436-3.03174-.47314.23438a1.99994,1.99994,0,1,1-1.74609-3.59863l.42139-.209a2,2,0,1,1,1.79785,3.57324ZM100,79.37567A12.772,12.772,0,0,1,87.11273,92H69.92963a4.85653,4.85653,0,1,1,0-9.711H87.11273c1.64,0,3.15753-2.19977,3.15753-3.80627V71.72412c0-1.60651-1.279-3.86206-2.91888-3.86206H69.83783c-2.73724,0-4.86487-2.63708-4.86487-5.31848V40.85547A4.9071,4.9071,0,0,1,69.92963,36H94.05206a4.85653,4.85653,0,1,1,0,9.711L74.7027,45.65515V58.20691H87.35138C94.45764,58.20691,100,63.35107,100,70.31238Z"></path>
</svg>