<svg xmlns="http://www.w3.org/2000/svg" xmlns:xlink="http://www.w3.org/1999/xlink" id="Layer_1" x="0px" y="0px" viewBox="0 0 200 200" style="enable-background:new 0 0 200 200;" xml:space="preserve" fill="#F56322">
<g>
	<path d="M154.3,66.2c6.3,0.1,12.3,1.2,17.9,3.9c10.2,5,15.4,13.6,17,24.7c0.8,5.4,0.5,11-0.8,16.3c-2.6,10.2-8.8,17.3-18.8,20.7   c-10.6,3.6-21.2,3.5-31.7-0.8c-8.8-3.6-14.5-10.2-17-19.4c-2.1-7.7-2.1-15.6,0.1-23.3c3.4-12.2,11.9-18.9,24-21.2   C148.1,66.6,151.2,66.5,154.3,66.2z M165.9,101.2c-0.2-3.4-0.4-6-0.7-8.5c-0.9-7.6-3.8-10.2-11.4-10.2c-0.1,0-0.1,0-0.2,0   c-5.7,0.1-8.3,2.3-9.2,7.8c-1,5.9-1.1,11.9-0.2,17.7c1.1,7.9,4,10.2,11.4,9.9c0.1,0,0.1,0,0.2,0c5-0.1,7.6-1.8,8.7-6.7   C165.4,107.7,165.6,104,165.9,101.2z"></path>
	<path d="M70.5,127.8c0,1.8,0,3.3,0,4.9c-4.8,0-9.5,0-14.2,0c0-0.5-0.1-1.1-0.1-1.6c0-6.7,0-13.6,0-20.3c0-1.4,0.4-1.8,1.8-1.8   c3.2,0.1,6.3,0,9.5,0.1c0.8,0,1.7,0.4,2.2,1.1c5.2,7.5,16,10.7,24.4,8.6c1.5-0.3,3.5-0.8,3.6-2.5c0-0.8-2-2.1-3.2-2.5   c-6.6-2.2-13.4-4.2-20.1-6.3c-5-1.5-9.6-3.6-13.3-7.4c-8.6-8.8-6.5-23.7,4.1-29.8c5.7-3.3,11.9-3.9,18.2-3.5   c6.3,0.4,12.2,2.1,17.6,5.3c0.1,0.1,0.3,0.1,0.8,0.2c0-1-0.1-1.8,0-2.7c0.1-0.4,0.7-1.1,1-1.2c4.1-0.1,8.3,0,12.4,0   c0,7.4,0,14.7,0,22.1c-0.4,0.1-0.9,0.2-1.4,0.2c-3.4,0-6.6,0.1-10,0c-0.7,0-1.5-0.4-2-1c-4.4-4.9-9.8-7.5-16.2-8.3   c-2.2-0.2-4.4-0.1-6.5-0.1c-0.2,0-0.3,0-0.5,0.1c-1.4,0.4-3,0.8-3.3,2.5c-0.1,1.7,1.4,2.4,2.7,2.8c5.4,1.7,10.9,3.4,16.3,4.9   c4.7,1.4,9.4,2.8,13.6,5.5c7.1,4.7,10.6,11.2,9.4,19.8c-1.1,7.8-6.1,12.6-13.3,15.2c-10.9,3.9-21.4,2.5-31.4-3.2   C72,128.7,71.4,128.4,70.5,127.8z"></path>
	<path d="M51.4,82.9c-3.2,0-6.1,0-9.2,0c0,11.4,0,22.7,0,34.3c3,0,6.1,0,9.2,0c0,5.2,0,10.3,0,15.6c-13.6,0-27.2,0-41,0   c0-5.1,0-10.1,0-15.4c2.5,0,5-0.1,7.4,0c1.5,0.1,2.1-0.4,2-2c-0.1-10.1,0-20.3,0-30.5c0-0.5-0.1-1.1-0.1-1.8c-3.2,0-6.1,0-9.2,0   c0-5.3,0-10.4,0-15.8c13.7,0,27.3,0,41,0C51.4,72.4,51.4,77.6,51.4,82.9z"></path>
	<path d="M52.4,59.4c3-3.9,6.1-7.6,9.1-11.4c-2.4-1.6-4.9-3.3-7.4-4.7c-0.3-0.2-1.2,0.1-1.5,0.4c-5.3,4.1-10,8.9-13.8,14.6   c-0.8,1.2-1.6,1.6-3.3,1.1C49.1,40,67.3,28.5,90.8,26.2c32.6-3.2,57.6,15.2,68.7,33.3c-1.3,0.4-2.2,0.1-2.9-1.1   c-3.8-5.5-8.5-10.3-13.7-14.7c-0.9-0.8-1.5-0.8-2.5-0.1c-2.4,1.6-4.8,3.2-7.4,4.8c2.8,3.6,5.7,7.2,8.6,10.9   c-1.4,0.7-2.3,0.3-3.2-0.8c-2.2-2.8-4.5-5.5-6.7-8.3c-0.3-0.3-1.1-0.8-1.5-0.5c-4,1.4-8,3-12.2,4.6c0.7,1.6,1.4,3.4,2.1,5.1   c-1.4,0.5-2.1,0.1-2.6-1.2c-1.5-3.7-1.5-3.6-5.4-3c-3.8,0.5-7.7,1-11.6,1.2c-1.6,0.1-2.6,0.3-2.3,2.2c0,0.2,0,0.4-0.1,0.9   c-0.5,0-1.1,0.1-1.7,0.1c-0.1-1.1-0.2-2-0.2-2.9c-3.8-0.4-7.5-0.8-11.2-1.2c-1.7-0.2-3.5-0.7-5.1-1c-1-0.2-1.6-0.1-2,1   c-0.3,1-0.9,1.8-1.2,2.8c-0.4,1.3-1.2,1.6-2.6,1.2c0.8-1.8,1.5-3.7,2.3-5.5c-2.8-1-5.4-2-8-2.9c-0.4-0.2-1-0.3-1.4-0.5   c-3.3-1.4-3.4-1.4-5.7,1.4c-1.8,2.2-3.7,4.5-5.3,6.7C54.9,59.6,53.9,59.9,52.4,59.4z M79.3,52.1c0.1,0.2,0.1,0.4,0.2,0.7   c5.1,0.5,10.2,1.1,15.3,1.7c1.2,0.1,1.2-0.7,1.2-1.5c0-4,0-8.2,0-12.2c0-1.1,0-2.1,0-3.2c-2.1-0.3-3.8-0.7-5.5-0.8   c-0.5,0-1.4,0.3-1.7,0.9c-2.5,3.5-4.8,7-7.2,10.4C80.7,49.4,80.1,50.8,79.3,52.1z M114.8,52.8c-0.4-0.9-0.7-1.4-0.9-2   c-2.7-4.2-5.5-8.5-8.4-12.7c-0.7-1-1.4-1.4-2.6-1.1c-1.2,0.4-2.5,0.4-3.7,0.4c-1,0-1.2,0.4-1.2,1.3c0,4.8,0,9.6,0,14.4   c0,1.1,0.4,1.4,1.4,1.3c1.5-0.1,3.2-0.1,4.7-0.3C107.6,53.9,111,53.3,114.8,52.8z M114.6,30.1c-9.6-3-26.1-2.7-33.9,0   C87.6,37,106.3,37.7,114.6,30.1z M106.7,36.4c0.4,0.7,0.9,1.2,1.2,1.6c2.6,3.9,5.2,7.9,7.7,12c1.5,2.4,0.8,2.4,3.6,1.5   c3.4-1,6.6-2.3,10.2-3.6c-0.8-0.8-1.1-1.3-1.6-1.6c-4.2-3.4-8.5-6.6-12.7-10c-1.8-1.5-3.7-2.1-5.9-0.7   C108.6,35.9,107.8,36,106.7,36.4z M87.2,36.1c-1.4-0.7-2.8-1.3-4.2-1.8c-0.4-0.1-1.2,0-1.5,0.2c-5,3.7-9.9,7.4-14.8,11.2   c-0.5,0.4-1,1-1.7,1.7c3.2,1.2,6,2.4,8.8,3.4c3.4,1.2,3.4,1.1,5.1-2c0.2-0.3,0.3-0.5,0.5-0.9C81.9,44.1,84.6,40.2,87.2,36.1z    M114.4,33c0.2,0.3,0.3,0.4,0.4,0.5c5.5,3.8,11.2,7.7,15.9,12.6c0.2,0.2,0.9,0.4,1.1,0.3c2.7-1.5,5.3-3,8.2-4.8   c-7-5-14.1-8.6-22-10.9c-0.3-0.1-0.9,0-1.2,0.2C116,31.7,115.2,32.3,114.4,33z M55.2,41.7c2.5,1.5,4.7,2.8,6.7,4.1   c0.9,0.5,1.3,0.2,2.1-0.3c4.8-3.9,9.7-7.7,14.6-11.5c0.5-0.4,1.1-0.8,1.6-1.2c-1.3-1.7-2.7-2.5-4.8-1.5c-1,0.4-2.1,0.7-3,1.1   C66.4,34.6,60.7,37.6,55.2,41.7z"></path>
	<path d="M35.4,140.9c1.6-0.5,2.5-0.2,3.3,1c3.7,5.3,8.2,10,13.3,14.2c0.9,0.8,1.5,0.9,2.6,0.1c2.2-1.6,4.6-3,7-4.6   c-2.8-3.6-5.8-7.2-8.7-10.9c1.6-0.4,2.5-0.2,3.4,1c2,2.6,4.2,5.2,6.3,7.8c0.7,0.9,1.3,1.1,2.4,0.5c3.7-1.5,7.4-2.9,11.3-4.5   c-0.7-1.5-1.3-3.2-2-4.9c1.5-0.7,2.2,0,2.7,1.3c1.3,3.2,1.3,3,4.8,2.6c3.9-0.5,7.9-1,12-1.4c0.8-0.1,1.5-0.1,2.4-0.2   c0.1-0.8,0.1-1.5,0.2-2.3c0.5,0,1.1,0,1.7,0c0.1,0.8,0.2,1.5,0.3,2.3c2.8,0.2,5.5,0.3,8.3,0.7c2.6,0.3,5.2,0.7,7.8,1.2   c1.1,0.2,1.6,0,2-1c0.2-0.7,0.7-1.3,0.9-2.1c0.4-1.3,1.2-1.6,2.6-1.1c-0.7,1.5-1.2,3-2,4.7c0.5,0.2,1.1,0.3,1.6,0.5   c3.3,1.2,6.6,2.3,9.8,3.6c1.2,0.5,2,0.3,2.7-0.7c1.8-2.4,3.8-4.8,5.8-7.1c1.2-1.4,1.2-1.5,3.5-1.2c-2.8,3.6-5.5,7-8.3,10.3   c2.8,1.8,5.7,3.7,8.5,5.4c0.3,0.2,1.3-0.1,1.6-0.4c5.1-4,9.6-8.8,13.3-14.1c0.9-1.2,1.6-1.7,3.4-1.2c-14.8,21-34.7,32.8-60.3,33.4   C72.3,174.9,51.2,163.1,35.4,140.9z M79.6,147.2c-0.2,0.2-0.3,0.3-0.5,0.5c3.4,4.9,6.6,9.8,10,14.6c0.2,0.2,0.5,0.5,0.8,0.5   c2.1-0.2,4-0.7,6.1-0.9c0-5.7,0-11.1,0-16.7C90.3,145.2,84.9,146,79.6,147.2z M114.8,147.2c-0.4-0.2-0.7-0.3-1-0.4   c-4.9-0.5-9.7-1.1-14.6-1.6c-1.2-0.1-1.2,0.7-1.2,1.5c0,3.6,0,7.1,0,10.7c0,1.5,0,3,0,4.6c1.7,0.2,3.4,0.2,4.9,0.5   c1.3,0.3,2-0.1,2.7-1.1c2.1-3,4.2-6.1,6.3-9.2C112.9,150.7,113.8,148.9,114.8,147.2z M115.3,170.3c-8.4-8.3-28-7.7-35.3,0   C91.7,173.2,103.5,173.2,115.3,170.3z M129.6,151.8c-4-1.4-7.6-2.6-11.2-3.8c-1.1-0.4-1.6-0.1-2.3,0.9c-2.6,4.4-5.4,8.6-8.2,12.8   c-0.3,0.5-0.7,1-1.1,1.6c1.5,0.7,2.9,1.3,4.4,1.7c0.5,0.2,1.5,0.1,2-0.2c4.1-2.9,8.3-6,12.3-9C126.8,154.7,128,153.4,129.6,151.8z    M87.2,163.6c0-0.1,0-0.2,0-0.2c-3.2-4.9-6.3-9.9-9.6-14.8c-0.2-0.3-0.8-0.5-1.1-0.5c-3.8,1.3-7.6,2.6-11.5,4   c0.4,0.5,0.4,0.8,0.7,1c4.8,4.9,10.4,8.6,16.1,12.4c0.3,0.2,0.8,0.2,1.1,0.1C84.2,164.9,85.8,164.3,87.2,163.6z M114.2,166.6   c0.9,0.7,1.5,1.1,2.1,1.6c1,1.2,2.1,1.3,3.6,0.8c6.1-2.1,11.7-4.8,17.2-8.3c1.1-0.7,2.1-1.4,3.5-2.4c-2.9-1.7-5.4-3.3-7.9-4.8   c-0.9-0.5-1.4-0.3-2.2,0.3c-3.8,3.3-7.7,6.4-11.5,9.6C117.3,164.5,115.9,165.5,114.2,166.6z M55,158.2c0.2,0.3,0.2,0.5,0.3,0.5   c0.4,0.3,0.8,0.7,1.2,0.9c5.5,3.9,11.6,6.9,18.1,9c2.9,1,3.4,0.9,5.4-1.7c-0.1-0.1-0.1-0.2-0.2-0.2c-5.7-3.9-11.4-7.7-16.2-12.7   c-0.2-0.2-0.9-0.4-1.2-0.2C60,155.1,57.5,156.7,55,158.2z"></path>
</g>
</svg>