<?xml version="1.0" encoding="UTF-8" standalone="no"?>
<!DOCTYPE svg PUBLIC "-//W3C//DTD SVG 1.1//EN" "http://www.w3.org/Graphics/SVG/1.1/DTD/svg11.dtd">
<svg width="100%" height="100%" viewBox="0 0 512 512" version="1.1" xmlns="http://www.w3.org/2000/svg" xmlns:xlink="http://www.w3.org/1999/xlink" xml:space="preserve" xmlns:serif="http://www.serif.com/" style="fill-rule:evenodd;clip-rule:evenodd;stroke-linejoin:round;stroke-miterlimit:2;">
    <g>
        <g>
            <path d="M506.76,242.828L388.36,117.388C381.083,109.67 368.936,109.318 361.218,116.601C353.512,123.878 353.154,136.031 360.437,143.743L466.402,255.999L360.437,368.268C353.154,375.98 353.512,388.127 361.218,395.41C364.93,398.911 369.672,400.645 374.396,400.645C379.497,400.645 384.591,398.623 388.361,394.635L506.761,269.189C513.742,261.785 513.742,250.226 506.76,242.828Z" style="fill:white;fill-rule:nonzero;"/>
        </g>
    </g>
    <g>
        <g>
            <path d="M151.566,368.262L45.608,255.999L151.566,143.737C158.843,136.025 158.491,123.871 150.779,116.595C143.073,109.318 130.913,109.67 123.637,117.382L5.237,242.822C-1.745,250.22 -1.745,261.785 5.237,269.184L123.643,394.63C127.419,398.63 132.507,400.646 137.608,400.646C142.331,400.646 147.074,398.905 150.779,395.404C158.498,388.127 158.843,375.974 151.566,368.262Z" style="fill:white;fill-rule:nonzero;"/>
        </g>
    </g>
    <g>
        <g>
            <path d="M287.061,52.697C276.584,51.11 266.779,58.303 265.179,68.78L208.859,437.42C207.259,447.903 214.459,457.702 224.942,459.302C225.928,459.449 226.9,459.52 227.867,459.52C237.192,459.52 245.371,452.717 246.824,443.219L303.144,74.579C304.744,64.095 297.544,54.297 287.061,52.697Z" style="fill:white;fill-rule:nonzero;stroke:white;stroke-width:1px;"/>
        </g>
    </g>
</svg>
