<?xml version="1.0" encoding="utf-8"?>
<!-- Svg Vector Icons : http://www.onlinewebfonts.com/icon -->
<!DOCTYPE svg PUBLIC "-//W3C//DTD SVG 1.1//EN" "http://www.w3.org/Graphics/SVG/1.1/DTD/svg11.dtd">
<svg version="1.1" xmlns="http://www.w3.org/2000/svg" xmlns:xlink="http://www.w3.org/1999/xlink" x="0px" y="0px" viewBox="0 0 1000 1000" enable-background="new 0 0 1000 1000" xml:space="preserve">
<metadata> Svg Vector Icons : http://www.onlinewebfonts.com/icon </metadata>
<g><path d="M862.7,277.5c-2.3-5.6-5.1-11-8.9-15.6l-213.9-234c-4.8-5.4-10.7-9.2-17.1-12.5c-7.4-3.8-15.6-5.4-24.2-5.4H190.4c-31.6,0-57.9,27.1-57.9,61v855.5c0,34.2,26.3,63.5,57.9,63.5h620.4c31.6,0,56.7-29.3,56.7-63.5v-623C867.5,294.3,866.2,285.4,862.7,277.5z M255,301.4c0-3.8,4.6-5.4,8.7-5.4h180.7c4.1,0,7.1,1.5,7.1,5.4V329c0,3.6-2.8,7.9-7.1,7.9H263.7c-4.1,0-8.7-4.3-8.7-7.9V301.4z M255,628.1c0-3.8,4.6-5.4,8.7-5.4h311.9c4.1,0,6.1,1.5,6.1,5.4v27.6c0,3.6-1.8,7.9-6.1,7.9H263.7c-4.1,0-8.7-4.3-8.7-7.9V628.1z M663.3,819c0,3.6-1.8,7.9-6.1,7.9H263.7c-4.1,0-8.7-4.3-8.7-7.9v-27.6c0-3.8,4.6-5.4,8.7-5.4h393.5c4.1,0,6.1,1.5,6.1,5.4V819z M745,492.3c0,3.6-1.8,7.9-6.1,7.9H263.7c-4.1,0-8.7-4.3-8.7-7.9v-27.6c0-3.8,4.6-5.4,8.7-5.4h475.2c4.1,0,6.1,1.5,6.1,5.4V492.3z M625.3,298.6c-14.3,0-28.3-13.3-28.3-28.8V101.4l181.7,197.3H625.3z"/></g>
</svg>