<?xml version="1.0" encoding="UTF-8" standalone="no"?>
<!DOCTYPE svg PUBLIC "-//W3C//DTD SVG 1.1//EN" "http://www.w3.org/Graphics/SVG/1.1/DTD/svg11.dtd">
<svg width="100%" height="100%" viewBox="0 0 576 512" version="1.1" xmlns="http://www.w3.org/2000/svg" xmlns:xlink="http://www.w3.org/1999/xlink" xml:space="preserve" xmlns:serif="http://www.serif.com/" style="fill-rule:evenodd;clip-rule:evenodd;stroke-linejoin:round;stroke-miterlimit:2;">
    <path d="M551.991,64L144.28,64L135.554,19.392C133.35,8.128 123.478,0 112,0L12,0C5.373,0 0,5.373 0,12L0,36C0,42.627 5.373,48 12,48L92.24,48L161.834,403.701C150.796,415.201 144,430.802 144,448C144,483.346 172.654,512 208,512C243.346,512 272,483.346 272,448C272.012,436.764 269.051,425.722 263.417,416L408.584,416C402.95,425.722 399.989,436.764 400.001,448C400.001,483.346 428.655,512 464.001,512C499.347,512 528.001,483.346 528.001,448C528.001,429.864 520.445,413.504 508.325,401.858L509.36,397.101C512.614,382.141 501.218,368 485.908,368L203.76,368L194.37,320L506.775,320C518.065,320 527.829,312.131 530.227,301.098L575.443,93.098C578.695,78.139 567.299,64 551.991,64ZM208,472C194.766,472 184,461.234 184,448C184,434.766 194.766,424 208,424C221.234,424 232,434.766 232,448C232,461.234 221.234,472 208,472ZM464,472C450.766,472 440,461.234 440,448C440,434.766 450.766,424 464,424C477.234,424 488,434.766 488,448C488,461.234 477.234,472 464,472ZM487.438,272L184.98,272L153.67,112L522.218,112L487.438,272Z" style="fill:rgb(0,86,165);fill-rule:nonzero;"/>
</svg>
