<svg id="Capa_1" enable-background="new 0 0 385.239 385.239" height="512" viewBox="0 0 385.239 385.239" width="512" xmlns="http://www.w3.org/2000/svg"><g><g id="Temperature"><path d="m206.412 250.13v-85.028c0-7.599-6.16-13.759-13.759-13.759s-13.759 6.16-13.759 13.759v85.028c-21.492 7.599-32.755 31.181-25.156 52.674 7.599 21.492 31.181 32.755 52.674 25.156 21.492-7.599 32.755-31.181 25.156-52.674-4.156-11.754-13.402-21-25.156-25.156z"/><path d="m261.446 221.65v-152.857c0-37.993-30.8-68.793-68.793-68.793s-68.793 30.8-68.793 68.793v152.857c-37.235 37.887-36.707 98.785 1.179 136.02 13.085 12.86 29.576 21.71 47.526 25.505 6.563 1.36 13.247 2.051 19.95 2.064 53.142.125 96.323-42.853 96.448-95.995.06-25.271-9.825-49.55-27.517-67.594zm-25.316 120.525c-16.232 13.226-37.581 18.386-58.061 14.034-37.092-8-60.675-44.554-52.675-81.646 3.056-14.167 10.513-27.005 21.306-36.678 2.998-2.587 4.708-6.359 4.678-10.319v-158.773c.013-22.796 18.503-41.265 41.299-41.252 22.778.013 41.239 18.475 41.252 41.252v158.773c-.03 3.959 1.68 7.732 4.678 10.319 28.215 25.25 30.619 68.593 5.369 96.808-2.414 2.697-5.037 5.199-7.846 7.482z"/></g></g></svg>