<svg height="512pt" viewBox="0 0 512 512" width="512pt" xmlns="http://www.w3.org/2000/svg"><path d="m196 391c5.292969 0 10.453125-.917969 15.691406-1.339844-.371094-4.519531-.691406-9.050781-.691406-13.660156 0-90.980469 74.019531-165 165-165 4.609375 0 9.140625.320312 13.660156.691406.421875-5.238281 1.339844-10.398437 1.339844-15.691406 0-107.519531-87.480469-196-195-196s-196 88.480469-196 196 88.480469 195 196 195zm-15-330h30v120h120v30h-150zm0 0"/><path d="m376 241c-74.441406 0-135 60.558594-135 135s60.558594 136 135 136 136-61.558594 136-136-61.558594-135-136-135zm-15 201.210938-55.605469-55.605469 21.210938-21.210938 34.394531 34.394531 64.394531-64.394531 21.210938 21.210938zm0 0"/></svg>