<?xml version="1.0" encoding="UTF-8"?>
<svg width="18px" height="23px" viewBox="0 0 18 23" version="1.1" xmlns="http://www.w3.org/2000/svg" xmlns:xlink="http://www.w3.org/1999/xlink">
    <!-- Generator: Sketch 48.2 (47327) - http://www.bohemiancoding.com/sketch -->
    <title>android-select</title>
    <desc>Created with Sketch.</desc>
    <defs></defs>
    <g id="Product-category-No-results" stroke="none" stroke-width="1" fill="none" fill-rule="evenodd" transform="translate(-158.000000, -2704.000000)">
        <path d="M161.340762,2719.81283 C161.340762,2721.0005 162.232305,2721.96236 163.333736,2721.96655 L163.333736,2725.74028 C163.333736,2726.43654 163.930425,2727 164.666394,2727 C165.401974,2727 165.998276,2726.43654 165.998276,2725.74028 L165.998276,2721.96655 L168.000948,2721.96655 L168.000948,2725.74028 C168.000948,2726.43654 168.598026,2727 169.333994,2727 C170.069575,2727 170.665876,2726.43654 170.665876,2725.74028 L170.665876,2721.96655 L170.6748,2721.96655 C171.779334,2721.96655 172.674368,2721.00218 172.674368,2719.81283 L172.674368,2711.1946 L161.341538,2711.1946 L161.341538,2719.81283 L161.340762,2719.81283 Z M174.668118,2711.1967 C173.931761,2711.1967 173.334684,2711.75932 173.334684,2712.45558 L173.334684,2717.84093 C173.334684,2718.53635 173.931761,2719.10107 174.668118,2719.10107 C175.404087,2719.10107 176,2718.53593 176,2717.84093 L176,2712.45558 C176,2711.76016 175.402535,2711.1967 174.668118,2711.1967 Z M168.674455,2709.04088 C168.306276,2709.04088 168.007932,2708.71956 168.007932,2708.32242 C168.007932,2707.92569 168.305888,2707.60353 168.674455,2707.60353 C169.043409,2707.60353 169.341366,2707.92569 169.341366,2708.32242 C169.341366,2708.71872 169.043021,2709.04088 168.674455,2709.04088 Z M165.340676,2709.04088 C164.971722,2709.04088 164.673765,2708.71956 164.673765,2708.32242 C164.673765,2707.92569 164.971722,2707.60353 165.340676,2707.60353 C165.70963,2707.60353 166.007199,2707.92569 166.007199,2708.32242 C166.007975,2708.71872 165.708078,2709.04088 165.340676,2709.04088 Z M169.412363,2705.92991 L170.577033,2704.67605 C170.721355,2704.52104 170.721355,2704.27136 170.577033,2704.11594 C170.433486,2703.96135 170.201095,2703.96135 170.05716,2704.11594 L168.624019,2705.66095 C168.111518,2705.52522 167.570696,2705.45065 167.007759,2705.45065 C166.452194,2705.45065 165.915639,2705.5248 165.408958,2705.65676 L163.978533,2704.11594 C163.834598,2703.96135 163.602207,2703.96135 163.45866,2704.11594 C163.314337,2704.27094 163.314337,2704.52104 163.45866,2704.67605 L164.617122,2705.92404 C162.683895,2706.7242 161.340762,2708.45983 161.340762,2710.47656 C161.340762,2710.50085 172.673981,2710.47823 172.673981,2710.47656 C172.674368,2708.46485 171.338995,2706.73341 169.412363,2705.92991 Z M159.332658,2711.1967 C158.596689,2711.1967 158,2711.75932 158,2712.45558 L158,2717.84093 C158,2718.53635 158.596689,2719.10107 159.332658,2719.10107 C160.067851,2719.10107 160.665316,2718.53635 160.665316,2717.84093 L160.665316,2712.45558 C160.665316,2711.76016 160.068239,2711.1967 159.332658,2711.1967 Z" id="android-select" fill="#F56323"></path>
    </g>
</svg>