<?xml version="1.0" encoding="UTF-8"?>
<svg width="20px" height="25px" viewBox="0 0 20 25" version="1.1" xmlns="http://www.w3.org/2000/svg" xmlns:xlink="http://www.w3.org/1999/xlink">

	<style type="text/css">
	path, circle, polygon { padding: 6px 12px; }
	path:hover, circle:hover, polygon:hover { fill: #F56323; }
	</style>


    <!-- Generator: Sketch 48.2 (47327) - http://www.bohemiancoding.com/sketch -->
    <title>linux-select</title>
    <desc>Created with Sketch.</desc>
    <defs></defs>
    <g id="Product-category-No-results" stroke="none" stroke-width="1" fill="none" fill-rule="evenodd" transform="translate(-53.000000, -2702.000000)">
        <path d="M53.9593939,2721.70877 C54.0470992,2721.30868 55.1827598,2721.30868 55.6192371,2721.02684 C56.0553046,2720.74543 56.1430099,2719.93654 56.4954704,2719.72319 C56.842603,2719.50417 57.4844091,2720.28077 57.7491643,2720.71881 C58.0085917,2721.14551 59.0028582,2723.01285 59.4085977,2723.47707 C59.8200749,2723.94565 60.1975355,2724.56607 60.0795022,2725.12409 C59.9680263,2725.68167 59.3499909,2726.08874 59.3499909,2726.08874 C58.7971196,2726.27067 57.2553097,2725.56169 56.554487,2725.2493 C55.8536644,2724.93561 54.0708698,2724.84224 53.8417705,2724.56607 C53.6061137,2724.28422 53.9544759,2723.66381 54.047509,2723.07524 C54.1302963,2722.48014 53.8704591,2722.11016 53.9593939,2721.70877 M58.2930191,2715.58885 C58.8020377,2714.73459 59.1307276,2712.86768 59.6393364,2712.24683 C60.1536828,2711.62816 60.5495862,2710.30793 60.3692575,2709.72461 C60.3692575,2709.72461 61.4655737,2711.12206 62.2295115,2710.89257 C62.993859,2710.65741 64.7127189,2709.29791 64.9672281,2709.53133 C65.2217374,2709.76606 67.4106813,2714.89078 67.631174,2716.52296 C67.8516668,2718.15383 67.4844521,2719.40033 67.4844521,2719.40033 C67.4844521,2719.40033 66.6471534,2719.16517 66.5393661,2719.70748 C66.4315787,2720.25416 66.4315787,2722.23581 66.4315787,2722.23581 C66.4315787,2722.23581 65.2991968,2723.90421 63.5471401,2724.18038 C61.7946735,2724.45132 60.9168009,2724.25368 60.9168009,2724.25368 L59.9327803,2723.05387 C59.9327803,2723.05387 60.6971278,2722.93388 60.5897503,2722.11583 C60.481963,2721.30301 58.2532648,2720.17693 57.8520336,2719.16517 C57.4508024,2718.15383 57.777853,2716.44399 58.2930191,2715.58885 M61.0446703,2705.49167 C61.5385249,2705.49167 61.9413955,2706.11775 61.9413955,2706.88869 C61.9413955,2707.02918 61.9258216,2707.15963 61.9024609,2707.29095 C61.7790997,2707.33153 61.6565582,2707.40003 61.5385249,2707.50954 C61.4811476,2707.56146 61.427049,2707.60814 61.3782783,2707.66049 C61.4561475,2707.5043 61.4860656,2707.28005 61.4508196,2707.04532 C61.3831963,2706.62909 61.1184411,2706.3202 60.8594236,2706.36164 C60.5983569,2706.40876 60.4430284,2706.79009 60.5053237,2707.21198 C60.5745863,2707.63912 60.8340136,2707.94714 61.098359,2707.90089 C61.1139329,2707.89522 61.1270477,2707.88999 61.1426215,2707.88431 C61.0159816,2708.0152 60.8979483,2708.12995 60.7754068,2708.22332 C60.4176184,2708.04618 60.1536828,2707.51477 60.1536828,2706.88869 C60.1536828,2706.11208 60.5495862,2705.49167 61.0446703,2705.49167 M62.3963154,2707.80055 C62.7045135,2707.8577 63.5520581,2708.24906 63.8651742,2708.3686 C64.17911,2708.48378 64.5262426,2708.69713 64.4922261,2708.91092 C64.4532915,2709.13081 64.2914056,2709.13081 63.8651742,2709.40742 C63.4442708,2709.67836 62.5241848,2710.28263 62.2295115,2710.32364 C61.9360676,2710.36509 61.7692636,2710.18883 61.4561475,2709.97417 C61.1426215,2709.75558 60.5545042,2709.24425 60.7024557,2708.97331 C60.7024557,2708.97331 61.1627036,2708.59853 61.3631143,2708.40656 C61.5639348,2708.20761 62.0827895,2707.73903 62.3963154,2707.80055 M63.9483713,2705.25694 C64.5750133,2705.25694 65.0803434,2705.9188 65.0803434,2706.73249 C65.0803434,2707.31059 64.8258341,2707.81102 64.4532915,2708.05142 C64.3594386,2708.00997 64.2614874,2707.96285 64.1537001,2707.91485 C64.3795207,2707.79662 64.5360787,2707.49339 64.5360787,2707.14392 C64.5360787,2706.68625 64.2717333,2706.30972 63.9393549,2706.30972 C63.615583,2706.30972 63.3463195,2706.68625 63.3463195,2707.14392 C63.3463195,2707.31102 63.3852541,2707.47725 63.448779,2707.60814 C63.2536962,2707.52393 63.0770561,2707.45238 62.9348424,2707.39435 C62.8610715,2707.19584 62.8172189,2706.97158 62.8172189,2706.73249 C62.8172189,2705.9188 63.3213194,2705.25694 63.9483713,2705.25694 M68.1701108,2721.58879 C68.8209332,2721.89158 69.7557733,2721.46968 70.0406106,2721.16689 C70.3238086,2720.86497 70.5242193,2720.4169 70.5242193,2720.4169 C70.5242193,2720.4169 70.8090565,2720.56742 70.7803679,2721.04691 C70.7500399,2721.5325 70.9758605,2722.2249 71.4020919,2722.4653 C71.8279134,2722.70439 72.4791457,2723.03772 72.1414393,2723.37193 C71.7979952,2723.70525 69.8975772,2724.51895 69.329542,2725.15419 C68.7668346,2725.78551 68.0274872,2726.30208 67.5774853,2726.14982 C67.1221554,2725.99886 66.7246128,2725.337 66.9205152,2724.36842 C67.1221554,2723.40334 67.292648,2722.34489 67.2639593,2721.74062 C67.2336313,2721.13635 67.1221554,2720.32222 67.2639593,2720.20224 C67.4057632,2720.08313 67.631174,2720.14029 67.631174,2720.14029 C67.631174,2720.14029 67.5184686,2721.28731 68.1701108,2721.58879 M55.2954652,2725.65506 C56.534405,2725.81256 57.9258044,2726.66683 59.0905635,2726.81735 C60.2610604,2726.97485 60.623357,2725.96875 60.623357,2725.96875 C60.623357,2725.96875 61.9413955,2725.65506 63.3262375,2725.61885 C64.7127189,2725.5774 66.0250196,2725.926 66.0250196,2725.926 C66.0250196,2725.926 66.2799387,2726.54641 66.7549408,2726.81735 C67.2299428,2727.09352 68.252898,2727.13105 68.9086385,2726.39545 C69.5656086,2725.65506 71.3180751,2724.72226 72.3020958,2724.13893 C73.2922639,2723.55473 73.1107058,2722.66295 72.4889818,2722.39201 C71.8672578,2722.12107 71.3582392,2721.69393 71.3971738,2720.87501 C71.4307805,2720.06175 70.8479911,2719.51987 70.8479911,2719.51987 C70.8479911,2719.51987 71.3582392,2717.73194 70.8828274,2716.25071 C70.4078253,2714.77603 68.8410153,2712.40433 67.6365019,2710.62119 C66.4319885,2708.83326 67.4545339,2706.76871 66.3573981,2704.13043 C65.260672,2701.48779 62.4163975,2701.64398 60.8831942,2702.7705 C59.3499909,2703.89658 59.8200749,2706.69017 59.8938457,2708.0152 C59.9680263,2709.33369 59.9278622,2710.27739 59.7860583,2710.6164 C59.6446643,2710.96063 58.6553157,2712.21105 57.9983457,2713.2586 C57.343015,2714.31138 56.868013,2716.48544 56.387683,2717.38246 C55.9175991,2718.27381 56.246289,2719.08663 56.246289,2719.08663 C56.246289,2719.08663 55.9175991,2719.20661 55.6581717,2719.79125 C55.4036624,2720.36934 54.8946438,2720.64508 53.9782465,2720.83356 C53.0684065,2721.03207 53.0684065,2721.65685 53.2876697,2722.35623 C53.5081625,2723.0543 53.2876697,2723.44522 53.0327506,2724.33657 C52.7782413,2725.22793 54.0520173,2725.49886 55.2954652,2725.65506" id="linux-select" fill="#F56323"></path>
    </g>
</svg>