<svg xmlns="http://www.w3.org/2000/svg" width="26" height="23" viewBox="0 0 26 23">

	<style type="text/css">
	path, circle, polygon { padding: 6px 12px; }
	path:hover, circle:hover, polygon:hover { fill: #F56323; }
	</style>

    <g fill="#9b9b9b" fill-rule="evenodd">
        <path d="M15.94 19.086a3.031 3.031 0 1 1-6.062 0 3.031 3.031 0 0 1 6.062 0M12.867 9.977c-3.009 0-5.833 1.382-7.71 3.673l1.09 1.888c1.472-2.202 3.954-3.56 6.62-3.56 2.63 0 5.1 1.334 6.577 3.495l1.087-1.883c-1.879-2.253-4.69-3.613-7.664-3.613"/>
        <path d="M2.523 9.088l1.035 1.792a12.974 12.974 0 0 1 9.33-3.99c3.506 0 6.838 1.463 9.247 3.923l1.039-1.8c-2.746-2.6-6.43-4.122-10.286-4.122-3.907 0-7.614 1.55-10.365 4.197"/>
        <path d="M12.909 0C8.128 0 3.57 1.727-.001 4.718l1.014 1.754A18.131 18.131 0 0 1 12.909 2c4.36 0 8.542 1.604 11.785 4.38l1.01-1.751c-3.558-2.934-8.08-4.63-12.795-4.63"/>
    </g>
</svg>
