<svg xmlns="http://www.w3.org/2000/svg" xmlns:xlink="http://www.w3.org/1999/xlink" preserveAspectRatio="xMidYMid" width="110" height="110" viewBox="0 0 110 110">
  <defs>
    <style>
      .cls-1 {
        fill: #0d0d0d;
        fill-rule: evenodd;
      }
    </style>
  </defs>
  <path d="M72.528,28.550 L72.528,19.205 C72.528,16.743 71.621,14.607 69.811,12.794 C67.998,10.984 65.791,10.078 63.183,10.078 L44.711,10.078 C42.103,10.078 39.893,10.984 38.083,12.794 C36.270,14.607 35.366,16.743 35.366,19.205 L35.366,28.550 L16.894,28.550 C14.287,28.550 12.076,29.456 10.266,31.266 C8.453,33.079 7.550,35.287 7.550,37.894 L7.550,88.747 C7.550,91.355 8.453,93.565 10.266,95.375 C12.076,97.188 14.287,98.092 16.894,98.092 L91.000,98.092 C93.608,98.092 95.815,97.188 97.628,95.375 C99.438,93.565 100.345,91.355 100.345,88.747 L100.345,37.894 C100.345,35.287 99.438,33.079 97.628,31.266 C95.815,29.456 93.608,28.550 91.000,28.550 L72.528,28.550 ZM44.711,28.550 L44.711,19.205 L63.183,19.205 L63.183,28.550 L44.711,28.550 Z" class="cls-1"/>
</svg>
