<svg xmlns="http://www.w3.org/2000/svg" xmlns:xlink="http://www.w3.org/1999/xlink" preserveAspectRatio="xMidYMid" width="50" height="50" viewBox="0 0 50 50">
  <defs>
    <style>
      .cls-1 {
        fill: #0d0d0d;
        fill-rule: evenodd;
      }
    </style>
  </defs>
  <path d="M40.922,148.122 C37.015,152.028 32.297,153.982 26.766,153.982 C21.234,153.982 16.515,152.028 12.609,148.122 C8.703,144.217 6.750,139.514 6.750,134.013 C6.750,128.514 8.703,123.810 12.609,119.904 C16.515,115.998 21.234,114.044 26.766,114.044 C32.297,114.044 37.015,115.998 40.922,119.904 C44.827,123.810 46.781,128.514 46.781,134.013 C46.781,139.514 44.827,144.217 40.922,148.122 ZM15.234,136.497 C14.265,137.467 13.781,138.639 13.781,140.013 C13.781,141.389 14.265,142.560 15.234,143.529 C16.203,144.498 17.375,144.982 18.750,144.982 C20.124,144.982 21.296,144.498 22.266,143.529 C23.234,142.560 23.719,141.389 23.719,140.013 C23.719,138.639 23.234,137.467 22.266,136.497 C21.296,135.529 20.124,135.044 18.750,135.044 C17.375,135.044 16.203,135.529 15.234,136.497 ZM30.281,122.482 C29.281,121.483 28.093,120.982 26.719,120.982 C25.343,120.982 24.171,121.483 23.203,122.482 C22.233,123.482 21.750,124.670 21.750,126.044 C21.750,127.420 22.233,128.592 23.203,129.560 C24.171,130.530 25.343,131.013 26.719,131.013 C28.093,131.013 29.281,130.530 30.281,129.560 C31.280,128.592 31.781,127.420 31.781,126.044 C31.781,124.670 31.280,123.482 30.281,122.482 ZM38.297,136.497 C37.327,135.529 36.155,135.044 34.781,135.044 C33.406,135.044 32.218,135.529 31.219,136.497 C30.218,137.467 29.719,138.639 29.719,140.013 C29.719,141.389 30.218,142.560 31.219,143.529 C32.218,144.498 33.406,144.982 34.781,144.982 C36.155,144.982 37.327,144.498 38.297,143.529 C39.265,142.560 39.750,141.389 39.750,140.013 C39.750,138.639 39.265,137.467 38.297,136.497 ZM41.578,42.841 C40.796,43.623 39.844,44.013 38.719,44.013 L10.781,44.013 C9.656,44.013 8.703,43.623 7.922,42.841 C7.140,42.060 6.750,41.107 6.750,39.982 L6.750,12.044 C6.750,10.919 7.140,9.967 7.922,9.185 C8.703,8.404 9.656,8.013 10.781,8.013 L12.750,8.013 L12.750,3.982 L16.781,3.982 L16.781,8.013 L32.719,8.013 L32.719,3.982 L36.750,3.982 L36.750,8.013 L38.719,8.013 C39.844,8.013 40.796,8.404 41.578,9.185 C42.359,9.967 42.750,10.919 42.750,12.044 L42.750,39.982 C42.750,41.107 42.359,42.060 41.578,42.841 ZM38.719,18.044 L10.781,18.044 L10.781,39.982 L38.719,39.982 L38.719,18.044 ZM21.937,31.732 L31.688,21.982 L33.844,24.138 L21.937,36.044 L15.562,29.669 L17.719,27.513 L21.937,31.732 ZM7.922,223.216 C8.703,222.435 9.656,222.044 10.781,222.044 L26.719,222.044 L38.719,234.044 L38.719,258.044 C38.719,259.108 38.328,260.028 37.547,260.810 C36.765,261.591 35.843,261.982 34.781,261.982 L10.688,261.982 C9.624,261.982 8.703,261.591 7.922,260.810 C7.140,260.028 6.750,259.108 6.750,258.044 L6.750,225.982 C6.750,224.920 7.140,223.998 7.922,223.216 ZM35.719,236.013 L24.750,225.044 L24.750,236.013 L35.719,236.013 ZM14.719,254.013 L30.750,254.013 L30.750,249.982 L14.719,249.982 L14.719,254.013 ZM14.719,246.044 L30.750,246.044 L30.750,242.013 L14.719,242.013 L14.719,246.044 Z" class="cls-1"/>
</svg>
