<svg xmlns="http://www.w3.org/2000/svg" xmlns:xlink="http://www.w3.org/1999/xlink" preserveAspectRatio="xMidYMid" width="44" height="40" viewBox="0 0 44 40">
  <defs>
    <style>
      .cls-1 {
        fill: #fff;
        fill-rule: evenodd;
      }
    </style>
  </defs>
  <path d="M23.977,21.156 L23.977,14.781 C25.163,14.345 26.133,13.609 26.883,12.578 C27.633,11.547 28.008,10.407 28.008,9.156 C28.008,7.469 27.429,6.048 26.273,4.891 C25.116,3.735 23.695,3.156 22.008,3.156 C20.320,3.156 18.898,3.735 17.742,4.891 C16.585,6.048 16.008,7.469 16.008,9.156 C16.008,10.407 16.383,11.547 17.133,12.578 C17.883,13.609 18.851,14.345 20.039,14.781 L20.039,21.156 L11.977,29.125 L4.008,29.125 L4.008,39.156 L14.039,39.156 L14.039,33.062 L22.008,24.625 L29.977,33.062 L29.977,39.156 L40.008,39.156 L40.008,29.125 L32.039,29.125 L23.977,21.156 Z" class="cls-1"/>
</svg>
