<svg xmlns="http://www.w3.org/2000/svg" xmlns:xlink="http://www.w3.org/1999/xlink" preserveAspectRatio="xMidYMid" width="50" height="50" viewBox="0 0 50 50">
  <defs>
    <style>
      .cls-1 {
        fill: #0d0d0d;
        fill-rule: evenodd;
      }
    </style>
  </defs>
  <path d="M19.750,19.013 L19.750,31.013 L31.750,31.013 L31.750,19.013 L19.750,19.013 ZM23.781,26.982 L23.781,23.044 L27.719,23.044 L27.719,26.982 L23.781,26.982 ZM43.750,19.013 L39.719,19.013 L39.719,14.982 C39.719,13.920 39.328,12.998 38.547,12.216 C37.765,11.435 36.843,11.044 35.781,11.044 L31.750,11.044 L31.750,7.013 L27.719,7.013 L27.719,11.044 L23.781,11.044 L23.781,7.013 L19.750,7.013 L19.750,11.044 L15.719,11.044 C14.655,11.044 13.734,11.435 12.953,12.216 C12.171,12.998 11.781,13.920 11.781,14.982 L11.781,19.013 L7.750,19.013 L7.750,23.044 L11.781,23.044 L11.781,26.982 L7.750,26.982 L7.750,31.013 L11.781,31.013 L11.781,35.044 C11.781,36.108 12.171,37.029 12.953,37.810 C13.734,38.592 14.655,38.982 15.719,38.982 L19.750,38.982 L19.750,43.013 L23.781,43.013 L23.781,38.982 L27.719,38.982 L27.719,43.013 L31.750,43.013 L31.750,38.982 L35.781,38.982 C36.843,38.982 37.765,38.592 38.547,37.810 C39.328,37.029 39.719,36.108 39.719,35.044 L39.719,31.013 L43.750,31.013 L43.750,26.982 L39.719,26.982 L39.719,23.044 L43.750,23.044 L43.750,19.013 ZM15.719,35.044 L15.719,14.982 L35.781,14.982 L35.781,35.044 L15.719,35.044 Z" class="cls-1"/>
</svg>
