<svg xmlns="http://www.w3.org/2000/svg" xmlns:xlink="http://www.w3.org/1999/xlink" preserveAspectRatio="xMidYMid" width="44" height="40" viewBox="0 0 44 40">
  <defs>
    <style>
      .cls-1 {
        fill: #fff;
        fill-rule: evenodd;
      }
    </style>
  </defs>
  <path d="M16.008,15.156 L16.008,27.156 L28.008,27.156 L28.008,15.156 L16.008,15.156 ZM20.039,23.125 L20.039,19.188 L23.977,19.188 L23.977,23.125 L20.039,23.125 ZM40.008,15.156 L35.977,15.156 L35.977,11.125 C35.977,10.063 35.585,9.142 34.805,8.359 C34.022,7.579 33.101,7.188 32.039,7.188 L28.008,7.188 L28.008,3.156 L23.977,3.156 L23.977,7.188 L20.039,7.188 L20.039,3.156 L16.008,3.156 L16.008,7.188 L11.977,7.188 C10.913,7.188 9.992,7.579 9.211,8.359 C8.429,9.142 8.039,10.063 8.039,11.125 L8.039,15.156 L4.008,15.156 L4.008,19.188 L8.039,19.188 L8.039,23.125 L4.008,23.125 L4.008,27.156 L8.039,27.156 L8.039,31.187 C8.039,32.251 8.429,33.172 9.211,33.953 C9.992,34.735 10.913,35.125 11.977,35.125 L16.008,35.125 L16.008,39.156 L20.039,39.156 L20.039,35.125 L23.977,35.125 L23.977,39.156 L28.008,39.156 L28.008,35.125 L32.039,35.125 C33.101,35.125 34.022,34.735 34.805,33.953 C35.585,33.172 35.977,32.251 35.977,31.187 L35.977,27.156 L40.008,27.156 L40.008,23.125 L35.977,23.125 L35.977,19.188 L40.008,19.188 L40.008,15.156 ZM11.977,31.187 L11.977,11.125 L32.039,11.125 L32.039,31.187 L11.977,31.187 Z" class="cls-1"/>
</svg>
