<svg xmlns="http://www.w3.org/2000/svg" xmlns:xlink="http://www.w3.org/1999/xlink" preserveAspectRatio="xMidYMid" width="50" height="50" viewBox="0 0 50 50">
  <defs>
    <style>
      .cls-1 {
        fill: #0d0d0d;
        fill-rule: evenodd;
      }
    </style>
  </defs>
  <path d="M41.750,283.013 C36.791,283.013 32.750,278.972 32.750,274.013 C32.750,269.054 36.791,265.013 41.750,265.013 C46.709,265.013 50.750,269.054 50.750,274.013 C50.750,278.972 46.709,283.013 41.750,283.013 ZM41.750,271.013 C40.091,271.013 38.750,272.354 38.750,274.013 C38.750,275.672 40.091,277.013 41.750,277.013 C43.409,277.013 44.750,275.672 44.750,274.013 C44.750,272.354 43.409,271.013 41.750,271.013 ZM45.547,35.841 C44.765,36.623 43.843,37.013 42.781,37.013 L6.781,37.013 C5.656,37.013 4.703,36.623 3.922,35.841 C3.140,35.060 2.750,34.107 2.750,32.982 L2.750,17.044 C2.750,15.919 3.140,14.967 3.922,14.185 C4.703,13.404 5.656,13.013 6.781,13.013 L42.781,13.013 C43.843,13.013 44.765,13.404 45.547,14.185 C46.328,14.967 46.719,15.919 46.719,17.044 L46.719,32.982 C46.719,34.107 46.328,35.060 45.547,35.841 ZM42.781,17.044 L38.750,17.044 L38.750,25.013 L34.719,25.013 L34.719,17.044 L30.781,17.044 L30.781,25.013 L26.750,25.013 L26.750,17.044 L22.719,17.044 L22.719,25.013 L18.781,25.013 L18.781,17.044 L14.750,17.044 L14.750,25.013 L10.719,25.013 L10.719,17.044 L6.781,17.044 L6.781,32.982 L42.781,32.982 L42.781,17.044 ZM8.609,118.904 C12.515,114.998 17.234,113.044 22.766,113.044 C28.297,113.044 33.015,114.998 36.922,118.904 C40.827,122.810 42.781,127.514 42.781,133.013 C42.781,138.514 40.827,143.217 36.922,147.122 C33.015,151.028 28.297,152.982 22.766,152.982 C17.234,152.982 12.515,151.028 8.609,147.122 C4.703,143.217 2.750,138.514 2.750,133.013 C2.750,127.514 4.703,122.810 8.609,118.904 ZM18.781,142.013 L30.781,133.013 L18.781,124.013 L18.781,142.013 ZM5.750,291.122 L5.750,275.513 C5.750,269.710 10.447,265.013 16.250,265.013 C22.053,265.013 26.750,269.710 26.750,275.513 L26.750,291.122 C28.597,293.429 29.750,296.326 29.750,299.513 C29.750,306.966 23.703,313.013 16.250,313.013 C8.797,313.013 2.750,306.966 2.750,299.513 C2.750,296.326 3.903,293.438 5.750,291.122 ZM16.250,307.013 C20.384,307.013 23.750,303.647 23.750,299.513 C23.750,297.122 22.606,294.919 20.750,293.532 L20.750,275.513 C20.750,273.029 18.734,271.013 16.250,271.013 C13.766,271.013 11.750,273.029 11.750,275.513 L11.750,293.532 C9.894,294.929 8.750,297.122 8.750,299.513 C8.750,303.647 12.116,307.013 16.250,307.013 ZM14.750,295.285 L14.750,293.513 C14.750,292.688 15.425,292.013 16.250,292.013 C17.075,292.013 17.750,292.688 17.750,293.513 L17.750,295.285 C19.494,295.904 20.750,297.554 20.750,299.513 C20.750,301.997 18.734,304.013 16.250,304.013 C13.766,304.013 11.750,301.997 11.750,299.513 C11.750,297.554 13.006,295.904 14.750,295.285 ZM3.922,380.185 C4.703,379.404 5.656,379.013 6.781,379.013 L8.750,379.013 L8.750,374.982 L12.781,374.982 L12.781,379.013 L28.719,379.013 L28.719,374.982 L32.750,374.982 L32.750,379.013 L34.719,379.013 C35.844,379.013 36.796,379.404 37.578,380.185 C38.359,380.967 38.750,381.919 38.750,383.044 L38.750,410.982 C38.750,412.107 38.359,413.060 37.578,413.841 C36.796,414.623 35.844,415.013 34.719,415.013 L6.781,415.013 C5.656,415.013 4.703,414.623 3.922,413.841 C3.140,413.060 2.750,412.107 2.750,410.982 L2.750,383.044 C2.750,381.919 3.140,380.967 3.922,380.185 ZM6.781,410.982 L34.719,410.982 L34.719,389.044 L6.781,389.044 L6.781,410.982 ZM11.562,400.669 L13.719,398.513 L17.937,402.732 L27.688,392.982 L29.844,395.138 L17.937,407.044 L11.562,400.669 ZM8.609,490.904 C12.515,486.998 17.234,485.044 22.766,485.044 C28.297,485.044 33.015,486.998 36.922,490.904 C40.827,494.810 42.781,499.514 42.781,505.013 C42.781,510.514 40.827,515.217 36.922,519.122 C33.015,523.028 28.297,524.982 22.766,524.982 C17.234,524.982 12.515,523.028 8.609,519.122 C4.703,515.217 2.750,510.514 2.750,505.013 C2.750,499.514 4.703,494.810 8.609,490.904 ZM27.219,514.529 C28.218,515.498 29.406,515.982 30.781,515.982 C32.155,515.982 33.327,515.498 34.297,514.529 C35.265,513.560 35.750,512.389 35.750,511.013 C35.750,509.639 35.265,508.467 34.297,507.497 C33.327,506.529 32.155,506.044 30.781,506.044 C29.406,506.044 28.218,506.529 27.219,507.497 C26.218,508.467 25.719,509.639 25.719,511.013 C25.719,512.389 26.218,513.560 27.219,514.529 ZM26.281,500.560 C27.280,499.592 27.781,498.420 27.781,497.044 C27.781,495.670 27.280,494.482 26.281,493.482 C25.281,492.483 24.093,491.982 22.719,491.982 C21.343,491.982 20.171,492.483 19.203,493.482 C18.233,494.482 17.750,495.670 17.750,497.044 C17.750,498.420 18.233,499.592 19.203,500.560 C20.171,501.530 21.343,502.013 22.719,502.013 C24.093,502.013 25.281,501.530 26.281,500.560 ZM11.234,514.529 C12.203,515.498 13.375,515.982 14.750,515.982 C16.124,515.982 17.296,515.498 18.266,514.529 C19.234,513.560 19.719,512.389 19.719,511.013 C19.719,509.639 19.234,508.467 18.266,507.497 C17.296,506.529 16.124,506.044 14.750,506.044 C13.375,506.044 12.203,506.529 11.234,507.497 C10.265,508.467 9.781,509.639 9.781,511.013 C9.781,512.389 10.265,513.560 11.234,514.529 ZM3.922,594.216 C4.703,593.435 5.656,593.044 6.781,593.044 L22.719,593.044 L34.719,605.044 L34.719,629.044 C34.719,630.108 34.328,631.028 33.547,631.810 C32.765,632.591 31.843,632.982 30.781,632.982 L6.687,632.982 C5.624,632.982 4.703,632.591 3.922,631.810 C3.140,631.028 2.750,630.108 2.750,629.044 L2.750,596.982 C2.750,595.920 3.140,594.998 3.922,594.216 ZM31.719,607.013 L20.750,596.044 L20.750,607.013 L31.719,607.013 ZM10.719,625.013 L26.750,625.013 L26.750,620.982 L10.719,620.982 L10.719,625.013 ZM10.719,617.044 L26.750,617.044 L26.750,613.013 L10.719,613.013 L10.719,617.044 Z" class="cls-1"/>
</svg>
