<svg xmlns="http://www.w3.org/2000/svg" xmlns:xlink="http://www.w3.org/1999/xlink" preserveAspectRatio="xMidYMid" width="50" height="50" viewBox="0 0 50 50">
  <defs>
    <style>
      .cls-1 {
        fill: #0d0d0d;
        fill-rule: evenodd;
      }
    </style>
  </defs>
  <path d="M38.922,39.122 C35.015,43.028 30.297,44.982 24.766,44.982 C19.234,44.982 14.515,43.028 10.609,39.122 C6.703,35.217 4.750,30.514 4.750,25.013 C4.750,19.514 6.703,14.810 10.609,10.904 C14.515,6.998 19.234,5.044 24.766,5.044 C30.297,5.044 35.015,6.998 38.922,10.904 C42.827,14.810 44.781,19.514 44.781,25.013 C44.781,30.514 42.827,35.217 38.922,39.122 ZM13.234,27.497 C12.265,28.467 11.781,29.639 11.781,31.013 C11.781,32.389 12.265,33.560 13.234,34.529 C14.203,35.498 15.375,35.982 16.750,35.982 C18.124,35.982 19.296,35.498 20.266,34.529 C21.234,33.560 21.719,32.389 21.719,31.013 C21.719,29.639 21.234,28.467 20.266,27.497 C19.296,26.529 18.124,26.044 16.750,26.044 C15.375,26.044 14.203,26.529 13.234,27.497 ZM28.281,13.482 C27.281,12.483 26.093,11.982 24.719,11.982 C23.343,11.982 22.171,12.483 21.203,13.482 C20.233,14.482 19.750,15.670 19.750,17.044 C19.750,18.420 20.233,19.592 21.203,20.560 C22.171,21.530 23.343,22.013 24.719,22.013 C26.093,22.013 27.281,21.530 28.281,20.560 C29.280,19.592 29.781,18.420 29.781,17.044 C29.781,15.670 29.280,14.482 28.281,13.482 ZM36.297,27.497 C35.327,26.529 34.155,26.044 32.781,26.044 C31.406,26.044 30.218,26.529 29.219,27.497 C28.218,28.467 27.719,29.639 27.719,31.013 C27.719,32.389 28.218,33.560 29.219,34.529 C30.218,35.498 31.406,35.982 32.781,35.982 C34.155,35.982 35.327,35.498 36.297,34.529 C37.265,33.560 37.750,32.389 37.750,31.013 C37.750,29.639 37.265,28.467 36.297,27.497 ZM5.922,114.216 C6.703,113.435 7.656,113.044 8.781,113.044 L24.719,113.044 L36.719,125.044 L36.719,149.044 C36.719,150.108 36.328,151.028 35.547,151.810 C34.765,152.591 33.843,152.982 32.781,152.982 L8.688,152.982 C7.624,152.982 6.703,152.591 5.922,151.810 C5.140,151.028 4.750,150.108 4.750,149.044 L4.750,116.982 C4.750,115.920 5.140,114.998 5.922,114.216 ZM33.719,127.013 L22.750,116.044 L22.750,127.013 L33.719,127.013 ZM12.719,145.013 L28.750,145.013 L28.750,140.982 L12.719,140.982 L12.719,145.013 ZM12.719,137.044 L28.750,137.044 L28.750,133.013 L12.719,133.013 L12.719,137.044 Z" class="cls-1"/>
</svg>
