<svg xmlns="http://www.w3.org/2000/svg" xmlns:xlink="http://www.w3.org/1999/xlink" preserveAspectRatio="xMidYMid" width="50" height="50" viewBox="0 0 50 50">
  <defs>
    <style>
      .cls-1 {
        fill: #0d0d0d;
        fill-rule: evenodd;
      }
    </style>
  </defs>
  <path d="M13.781,5.044 C12.656,5.044 11.703,5.435 10.922,6.216 C10.140,6.998 9.750,7.920 9.750,8.982 L9.750,41.044 C9.750,42.108 10.140,43.028 10.922,43.810 C11.703,44.591 12.624,44.982 13.688,44.982 L37.781,44.982 C38.843,44.982 39.765,44.591 40.547,43.810 C41.328,43.028 41.719,42.108 41.719,41.044 L41.719,17.044 L29.719,5.044 L13.781,5.044 ZM17.719,37.013 L17.719,32.982 L33.750,32.982 L33.750,37.013 L17.719,37.013 ZM17.719,29.044 L17.719,25.013 L33.750,25.013 L33.750,29.044 L17.719,29.044 ZM27.750,8.044 L38.719,19.013 L27.750,19.013 L27.750,8.044 Z" class="cls-1"/>
</svg>
