<svg xmlns="http://www.w3.org/2000/svg" xmlns:xlink="http://www.w3.org/1999/xlink" preserveAspectRatio="xMidYMid" width="50" height="50" viewBox="0 0 50 50">
  <defs>
    <style>
      .cls-1 {
        fill: #0d0d0d;
        fill-rule: evenodd;
      }
    </style>
  </defs>
  <path d="M43.750,175.013 C38.791,175.013 34.750,170.972 34.750,166.013 C34.750,161.054 38.791,157.013 43.750,157.013 C48.709,157.013 52.750,161.054 52.750,166.013 C52.750,170.972 48.709,175.013 43.750,175.013 ZM43.750,163.013 C42.091,163.013 40.750,164.354 40.750,166.013 C40.750,167.672 42.091,169.013 43.750,169.013 C45.409,169.013 46.750,167.672 46.750,166.013 C46.750,164.354 45.409,163.013 43.750,163.013 ZM38.922,39.122 C35.015,43.028 30.297,44.982 24.766,44.982 C19.234,44.982 14.515,43.028 10.609,39.122 C6.703,35.217 4.750,30.514 4.750,25.013 C4.750,19.514 6.703,14.810 10.609,10.904 C14.515,6.998 19.234,5.044 24.766,5.044 C30.297,5.044 35.015,6.998 38.922,10.904 C42.827,14.810 44.781,19.514 44.781,25.013 C44.781,30.514 42.827,35.217 38.922,39.122 ZM20.781,16.013 L20.781,34.013 L32.781,25.013 L20.781,16.013 ZM7.750,183.122 L7.750,167.513 C7.750,161.710 12.447,157.013 18.250,157.013 C24.053,157.013 28.750,161.710 28.750,167.513 L28.750,183.122 C30.597,185.429 31.750,188.326 31.750,191.513 C31.750,198.966 25.703,205.013 18.250,205.013 C10.797,205.013 4.750,198.966 4.750,191.513 C4.750,188.326 5.903,185.438 7.750,183.122 ZM18.250,199.013 C22.384,199.013 25.750,195.647 25.750,191.513 C25.750,189.122 24.606,186.919 22.750,185.532 L22.750,167.513 C22.750,165.029 20.734,163.013 18.250,163.013 C15.766,163.013 13.750,165.029 13.750,167.513 L13.750,185.532 C11.894,186.929 10.750,189.122 10.750,191.513 C10.750,195.647 14.116,199.013 18.250,199.013 ZM16.750,187.285 L16.750,185.513 C16.750,184.688 17.425,184.013 18.250,184.013 C19.075,184.013 19.750,184.688 19.750,185.513 L19.750,187.285 C21.494,187.904 22.750,189.554 22.750,191.513 C22.750,193.997 20.734,196.013 18.250,196.013 C15.766,196.013 13.750,193.997 13.750,191.513 C13.750,189.554 15.006,187.904 16.750,187.285 ZM5.922,272.185 C6.703,271.404 7.656,271.013 8.781,271.013 L10.750,271.013 L10.750,266.982 L14.781,266.982 L14.781,271.013 L30.719,271.013 L30.719,266.982 L34.750,266.982 L34.750,271.013 L36.719,271.013 C37.844,271.013 38.796,271.404 39.578,272.185 C40.359,272.967 40.750,273.919 40.750,275.044 L40.750,302.982 C40.750,304.107 40.359,305.060 39.578,305.841 C38.796,306.623 37.844,307.013 36.719,307.013 L8.781,307.013 C7.656,307.013 6.703,306.623 5.922,305.841 C5.140,305.060 4.750,304.107 4.750,302.982 L4.750,275.044 C4.750,273.919 5.140,272.967 5.922,272.185 ZM8.781,302.982 L36.719,302.982 L36.719,281.044 L8.781,281.044 L8.781,302.982 ZM13.562,292.669 L15.719,290.513 L19.937,294.732 L29.688,284.982 L31.844,287.138 L19.937,299.044 L13.562,292.669 ZM10.609,382.904 C14.515,378.998 19.234,377.044 24.766,377.044 C30.297,377.044 35.015,378.998 38.922,382.904 C42.827,386.810 44.781,391.514 44.781,397.013 C44.781,402.514 42.827,407.217 38.922,411.122 C35.015,415.028 30.297,416.982 24.766,416.982 C19.234,416.982 14.515,415.028 10.609,411.122 C6.703,407.217 4.750,402.514 4.750,397.013 C4.750,391.514 6.703,386.810 10.609,382.904 ZM29.219,406.529 C30.218,407.498 31.406,407.982 32.781,407.982 C34.155,407.982 35.327,407.498 36.297,406.529 C37.265,405.560 37.750,404.389 37.750,403.013 C37.750,401.639 37.265,400.467 36.297,399.497 C35.327,398.529 34.155,398.044 32.781,398.044 C31.406,398.044 30.218,398.529 29.219,399.497 C28.218,400.467 27.719,401.639 27.719,403.013 C27.719,404.389 28.218,405.560 29.219,406.529 ZM28.281,392.560 C29.280,391.592 29.781,390.420 29.781,389.044 C29.781,387.670 29.280,386.482 28.281,385.482 C27.281,384.483 26.093,383.982 24.719,383.982 C23.343,383.982 22.171,384.483 21.203,385.482 C20.233,386.482 19.750,387.670 19.750,389.044 C19.750,390.420 20.233,391.592 21.203,392.560 C22.171,393.530 23.343,394.013 24.719,394.013 C26.093,394.013 27.281,393.530 28.281,392.560 ZM13.234,406.529 C14.203,407.498 15.375,407.982 16.750,407.982 C18.124,407.982 19.296,407.498 20.266,406.529 C21.234,405.560 21.719,404.389 21.719,403.013 C21.719,401.639 21.234,400.467 20.266,399.497 C19.296,398.529 18.124,398.044 16.750,398.044 C15.375,398.044 14.203,398.529 13.234,399.497 C12.265,400.467 11.781,401.639 11.781,403.013 C11.781,404.389 12.265,405.560 13.234,406.529 ZM5.922,486.216 C6.703,485.435 7.656,485.044 8.781,485.044 L24.719,485.044 L36.719,497.044 L36.719,521.044 C36.719,522.108 36.328,523.028 35.547,523.810 C34.765,524.591 33.843,524.982 32.781,524.982 L8.687,524.982 C7.624,524.982 6.703,524.591 5.922,523.810 C5.140,523.028 4.750,522.108 4.750,521.044 L4.750,488.982 C4.750,487.920 5.140,486.998 5.922,486.216 ZM33.719,499.013 L22.750,488.044 L22.750,499.013 L33.719,499.013 ZM12.719,517.013 L28.750,517.013 L28.750,512.982 L12.719,512.982 L12.719,517.013 ZM12.719,509.044 L28.750,509.044 L28.750,505.013 L12.719,505.013 L12.719,509.044 Z" class="cls-1"/>
</svg>
