<svg xmlns="http://www.w3.org/2000/svg" xmlns:xlink="http://www.w3.org/1999/xlink" preserveAspectRatio="xMidYMid" width="44" height="40" viewBox="0 0 44 40">
  <defs>
    <style>
      .cls-1 {
        fill: #fff;
        fill-rule: evenodd;
      }
    </style>
  </defs>
  <path d="M5.977,23.125 C5.476,23.125 5.023,23.329 4.617,23.734 C4.210,24.142 4.008,24.625 4.008,25.187 L4.008,37.187 C4.008,37.688 4.210,38.141 4.617,38.547 C5.023,38.954 5.476,39.156 5.977,39.156 L38.039,39.156 C38.539,39.156 38.991,38.954 39.398,38.547 C39.804,38.141 40.008,37.688 40.008,37.187 L40.008,25.187 C40.008,24.625 39.804,24.142 39.398,23.734 C38.991,23.329 38.539,23.125 38.039,23.125 L5.977,23.125 ZM8.039,31.141 C8.039,30.048 8.429,29.110 9.211,28.328 C9.992,27.547 10.929,27.156 12.023,27.156 C13.116,27.156 14.054,27.547 14.836,28.328 C15.617,29.110 16.008,30.048 16.008,31.141 C16.008,32.235 15.617,33.172 14.836,33.953 C14.054,34.735 13.116,35.125 12.023,35.125 C10.929,35.125 9.992,34.735 9.211,33.953 C8.429,33.172 8.039,32.235 8.039,31.141 ZM5.977,3.156 C5.476,3.156 5.023,3.360 4.617,3.766 C4.210,4.173 4.008,4.625 4.008,5.125 L4.008,17.125 C4.008,17.688 4.210,18.172 4.617,18.578 C5.023,18.985 5.476,19.188 5.977,19.188 L38.039,19.188 C38.539,19.188 38.991,18.985 39.398,18.578 C39.804,18.172 40.008,17.688 40.008,17.125 L40.008,5.125 C40.008,4.625 39.804,4.173 39.398,3.766 C38.991,3.360 38.539,3.156 38.039,3.156 L5.977,3.156 ZM8.039,11.172 C8.039,10.079 8.429,9.142 9.211,8.359 C9.992,7.579 10.929,7.188 12.023,7.188 C13.116,7.188 14.054,7.579 14.836,8.359 C15.617,9.142 16.008,10.079 16.008,11.172 C16.008,12.266 15.617,13.204 14.836,13.984 C14.054,14.767 13.116,15.156 12.023,15.156 C10.929,15.156 9.992,14.767 9.211,13.984 C8.429,13.204 8.039,12.266 8.039,11.172 Z" class="cls-1"/>
</svg>
