<svg xmlns="http://www.w3.org/2000/svg" xmlns:xlink="http://www.w3.org/1999/xlink" preserveAspectRatio="xMidYMid" width="50" height="50" viewBox="0 0 50 50">
  <defs>
    <style>
      .cls-1 {
        fill: #0d0d0d;
        fill-rule: evenodd;
      }
    </style>
  </defs>
  <path d="M39.750,19.367 C34.791,19.367 30.750,15.326 30.750,10.367 C30.750,5.407 34.791,1.367 39.750,1.367 C44.709,1.367 48.750,5.407 48.750,10.367 C48.750,15.326 44.709,19.367 39.750,19.367 ZM39.750,7.367 C38.091,7.367 36.750,8.707 36.750,10.367 C36.750,12.026 38.091,13.367 39.750,13.367 C41.409,13.367 42.750,12.026 42.750,10.367 C42.750,8.707 41.409,7.367 39.750,7.367 ZM14.250,49.367 C6.797,49.367 0.750,43.320 0.750,35.867 C0.750,32.679 1.903,29.792 3.750,27.476 L3.750,11.867 C3.750,6.063 8.447,1.367 14.250,1.367 C20.053,1.367 24.750,6.063 24.750,11.867 L24.750,27.476 C26.597,29.782 27.750,32.679 27.750,35.867 C27.750,43.320 21.703,49.367 14.250,49.367 ZM18.750,29.885 L18.750,11.867 C18.750,9.382 16.734,7.367 14.250,7.367 C11.766,7.367 9.750,9.382 9.750,11.867 L9.750,29.885 C7.894,31.282 6.750,33.476 6.750,35.867 C6.750,40.001 10.116,43.367 14.250,43.367 C18.384,43.367 21.750,40.001 21.750,35.867 C21.750,33.476 20.606,31.273 18.750,29.885 ZM14.250,40.367 C11.766,40.367 9.750,38.351 9.750,35.867 C9.750,33.907 11.006,32.257 12.750,31.638 L12.750,29.867 C12.750,29.042 13.425,28.367 14.250,28.367 C15.075,28.367 15.750,29.042 15.750,29.867 L15.750,31.638 C17.494,32.257 18.750,33.907 18.750,35.867 C18.750,38.351 16.734,40.367 14.250,40.367 ZM1.922,116.538 C2.703,115.758 3.656,115.367 4.781,115.367 L6.750,115.367 L6.750,111.335 L10.781,111.335 L10.781,115.367 L26.719,115.367 L26.719,111.335 L30.750,111.335 L30.750,115.367 L32.719,115.367 C33.844,115.367 34.796,115.758 35.578,116.538 C36.359,117.321 36.750,118.273 36.750,119.398 L36.750,147.335 C36.750,148.460 36.359,149.414 35.578,150.195 C34.796,150.977 33.844,151.367 32.719,151.367 L4.781,151.367 C3.656,151.367 2.703,150.977 1.922,150.195 C1.140,149.414 0.750,148.460 0.750,147.335 L0.750,119.398 C0.750,118.273 1.140,117.321 1.922,116.538 ZM4.781,147.335 L32.719,147.335 L32.719,125.398 L4.781,125.398 L4.781,147.335 ZM9.562,137.023 L11.719,134.867 L15.937,139.085 L25.688,129.335 L27.844,131.492 L15.937,143.398 L9.562,137.023 ZM6.609,227.257 C10.515,223.352 15.234,221.398 20.766,221.398 C26.297,221.398 31.015,223.352 34.922,227.257 C38.827,231.164 40.781,235.868 40.781,241.367 C40.781,246.867 38.827,251.571 34.922,255.476 C31.015,259.381 26.297,261.335 20.766,261.335 C15.234,261.335 10.515,259.381 6.609,255.476 C2.703,251.571 0.750,246.867 0.750,241.367 C0.750,235.868 2.703,231.164 6.609,227.257 ZM25.219,250.882 C26.218,251.852 27.406,252.335 28.781,252.335 C30.155,252.335 31.327,251.852 32.297,250.882 C33.265,249.914 33.750,248.742 33.750,247.367 C33.750,245.993 33.265,244.821 32.297,243.851 C31.327,242.883 30.155,242.398 28.781,242.398 C27.406,242.398 26.218,242.883 25.219,243.851 C24.218,244.821 23.719,245.993 23.719,247.367 C23.719,248.742 24.218,249.914 25.219,250.882 ZM24.281,236.913 C25.280,235.945 25.781,234.773 25.781,233.398 C25.781,232.024 25.280,230.836 24.281,229.835 C23.281,228.836 22.093,228.335 20.719,228.335 C19.343,228.335 18.171,228.836 17.203,229.835 C16.233,230.836 15.750,232.024 15.750,233.398 C15.750,234.773 16.233,235.945 17.203,236.913 C18.171,237.883 19.343,238.367 20.719,238.367 C22.093,238.367 23.281,237.883 24.281,236.913 ZM9.234,250.882 C10.203,251.852 11.375,252.335 12.750,252.335 C14.124,252.335 15.296,251.852 16.266,250.882 C17.234,249.914 17.719,248.742 17.719,247.367 C17.719,245.993 17.234,244.821 16.266,243.851 C15.296,242.883 14.124,242.398 12.750,242.398 C11.375,242.398 10.203,242.883 9.234,243.851 C8.265,244.821 7.781,245.993 7.781,247.367 C7.781,248.742 8.265,249.914 9.234,250.882 ZM1.922,330.570 C2.703,329.789 3.656,329.398 4.781,329.398 L20.719,329.398 L32.719,341.398 L32.719,365.398 C32.719,366.461 32.328,367.381 31.547,368.163 C30.765,368.944 29.843,369.335 28.781,369.335 L4.687,369.335 C3.624,369.335 2.703,368.944 1.922,368.163 C1.140,367.381 0.750,366.461 0.750,365.398 L0.750,333.335 C0.750,332.273 1.140,331.352 1.922,330.570 ZM29.719,343.367 L18.750,332.398 L18.750,343.367 L29.719,343.367 ZM8.719,361.367 L24.750,361.367 L24.750,357.335 L8.719,357.335 L8.719,361.367 ZM8.719,353.398 L24.750,353.398 L24.750,349.367 L8.719,349.367 L8.719,353.398 Z" class="cls-1"/>
</svg>
