<svg xmlns="http://www.w3.org/2000/svg" xmlns:xlink="http://www.w3.org/1999/xlink" preserveAspectRatio="xMidYMid" width="110" height="110" viewBox="0 0 110 110">
  <defs>
    <style>
      .cls-1 {
        fill: #0d0d0d;
        fill-rule: evenodd;
      }
    </style>
  </defs>
  <path d="M22.022,101.092 L22.022,45.458 L3.550,45.458 L3.550,101.092 L22.022,101.092 ZM102.756,43.611 C100.942,41.801 98.807,40.894 96.345,40.894 L67.007,40.894 L71.353,19.597 L71.570,18.076 C71.570,16.195 70.918,14.599 69.615,13.295 L64.616,8.297 L34.192,38.939 C32.307,40.677 31.366,42.850 31.366,45.458 L31.366,91.747 C31.366,94.355 32.270,96.565 34.083,98.375 C35.893,100.188 38.103,101.092 40.711,101.092 L82.436,101.092 C86.491,101.092 89.316,99.210 90.912,95.441 L104.820,62.844 C105.255,61.686 105.472,60.528 105.472,59.366 L105.472,50.456 L105.472,50.022 C105.472,47.560 104.565,45.424 102.756,43.611 Z" class="cls-1"/>
</svg>
