<svg xmlns="http://www.w3.org/2000/svg" xmlns:xlink="http://www.w3.org/1999/xlink" preserveAspectRatio="xMidYMid" width="50" height="50" viewBox="0 0 50 50">
  <defs>
    <style>
      .cls-1 {
        fill: #0d0d0d;
        fill-rule: evenodd;
      }
    </style>
  </defs>
  <path d="M46.750,439.013 C41.791,439.013 37.750,434.972 37.750,430.013 C37.750,425.054 41.791,421.013 46.750,421.013 C51.709,421.013 55.750,425.054 55.750,430.013 C55.750,434.972 51.709,439.013 46.750,439.013 ZM46.750,427.013 C45.091,427.013 43.750,428.354 43.750,430.013 C43.750,431.672 45.091,433.013 46.750,433.013 C48.409,433.013 49.750,431.672 49.750,430.013 C49.750,428.354 48.409,427.013 46.750,427.013 ZM50.547,191.841 C49.765,192.623 48.843,193.013 47.781,193.013 L11.781,193.013 C10.656,193.013 9.703,192.623 8.922,191.841 C8.140,191.060 7.750,190.107 7.750,188.982 L7.750,173.044 C7.750,171.919 8.140,170.967 8.922,170.185 C9.703,169.404 10.656,169.013 11.781,169.013 L47.781,169.013 C48.843,169.013 49.765,169.404 50.547,170.185 C51.328,170.967 51.719,171.919 51.719,173.044 L51.719,188.982 C51.719,190.107 51.328,191.060 50.547,191.841 ZM47.781,173.044 L43.750,173.044 L43.750,181.013 L39.719,181.013 L39.719,173.044 L35.781,173.044 L35.781,181.013 L31.750,181.013 L31.750,173.044 L27.719,173.044 L27.719,181.013 L23.781,181.013 L23.781,173.044 L19.750,173.044 L19.750,181.013 L15.719,181.013 L15.719,173.044 L11.781,173.044 L11.781,188.982 L47.781,188.982 L47.781,173.044 ZM38.500,39.732 C34.999,43.231 30.750,44.982 25.750,44.982 C20.749,44.982 16.500,43.231 13.000,39.732 C9.499,36.232 7.750,31.997 7.750,27.029 C7.750,22.060 9.499,17.810 13.000,14.279 C16.500,10.748 20.749,8.982 25.750,8.982 C29.937,8.982 33.687,10.327 37.000,13.013 L39.813,10.107 C40.812,10.920 41.749,11.857 42.625,12.919 L39.813,15.826 C42.438,19.076 43.750,22.795 43.750,26.982 C43.750,31.983 42.000,36.232 38.500,39.732 ZM35.641,17.091 C32.922,14.372 29.625,13.013 25.750,13.013 C21.874,13.013 18.578,14.372 15.859,17.091 C13.141,19.810 11.781,23.107 11.781,26.982 C11.781,30.858 13.141,34.170 15.859,36.919 C18.578,39.670 21.874,41.044 25.750,41.044 C29.625,41.044 32.922,39.670 35.641,36.919 C38.359,34.170 39.719,30.858 39.719,26.982 C39.719,23.107 38.359,19.810 35.641,17.091 ZM23.781,17.044 L27.719,17.044 L27.719,29.044 L23.781,29.044 L23.781,17.044 ZM19.750,2.982 L31.750,2.982 L31.750,7.013 L19.750,7.013 L19.750,2.982 ZM13.609,274.904 C17.515,270.998 22.234,269.044 27.766,269.044 C33.297,269.044 38.015,270.998 41.922,274.904 C45.827,278.810 47.781,283.514 47.781,289.013 C47.781,294.514 45.827,299.217 41.922,303.122 C38.015,307.028 33.297,308.982 27.766,308.982 C22.234,308.982 17.515,307.028 13.609,303.122 C9.703,299.217 7.750,294.514 7.750,289.013 C7.750,283.514 9.703,278.810 13.609,274.904 ZM23.781,298.013 L35.781,289.013 L23.781,280.013 L23.781,298.013 ZM10.750,447.122 L10.750,431.513 C10.750,425.710 15.447,421.013 21.250,421.013 C27.053,421.013 31.750,425.710 31.750,431.513 L31.750,447.122 C33.597,449.429 34.750,452.326 34.750,455.513 C34.750,462.966 28.703,469.013 21.250,469.013 C13.797,469.013 7.750,462.966 7.750,455.513 C7.750,452.326 8.903,449.438 10.750,447.122 ZM21.250,463.013 C25.384,463.013 28.750,459.647 28.750,455.513 C28.750,453.122 27.606,450.919 25.750,449.532 L25.750,431.513 C25.750,429.029 23.734,427.013 21.250,427.013 C18.766,427.013 16.750,429.029 16.750,431.513 L16.750,449.532 C14.894,450.929 13.750,453.122 13.750,455.513 C13.750,459.647 17.116,463.013 21.250,463.013 ZM19.750,451.285 L19.750,449.513 C19.750,448.688 20.425,448.013 21.250,448.013 C22.075,448.013 22.750,448.688 22.750,449.513 L22.750,451.285 C24.494,451.904 25.750,453.554 25.750,455.513 C25.750,457.997 23.734,460.013 21.250,460.013 C18.766,460.013 16.750,457.997 16.750,455.513 C16.750,453.554 18.006,451.904 19.750,451.285 ZM8.922,536.185 C9.703,535.404 10.656,535.013 11.781,535.013 L13.750,535.013 L13.750,530.982 L17.781,530.982 L17.781,535.013 L33.719,535.013 L33.719,530.982 L37.750,530.982 L37.750,535.013 L39.719,535.013 C40.844,535.013 41.796,535.404 42.578,536.185 C43.359,536.967 43.750,537.919 43.750,539.044 L43.750,566.982 C43.750,568.107 43.359,569.060 42.578,569.841 C41.796,570.623 40.844,571.013 39.719,571.013 L11.781,571.013 C10.656,571.013 9.703,570.623 8.922,569.841 C8.140,569.060 7.750,568.107 7.750,566.982 L7.750,539.044 C7.750,537.919 8.140,536.967 8.922,536.185 ZM11.781,566.982 L39.719,566.982 L39.719,545.044 L11.781,545.044 L11.781,566.982 ZM16.562,556.669 L18.719,554.513 L22.937,558.732 L32.688,548.982 L34.844,551.138 L22.937,563.044 L16.562,556.669 ZM13.609,646.904 C17.515,642.998 22.234,641.044 27.766,641.044 C33.297,641.044 38.015,642.998 41.922,646.904 C45.827,650.810 47.781,655.514 47.781,661.013 C47.781,666.514 45.827,671.217 41.922,675.122 C38.015,679.028 33.297,680.982 27.766,680.982 C22.234,680.982 17.515,679.028 13.609,675.122 C9.703,671.217 7.750,666.514 7.750,661.013 C7.750,655.514 9.703,650.810 13.609,646.904 ZM32.219,670.529 C33.218,671.498 34.406,671.982 35.781,671.982 C37.155,671.982 38.327,671.498 39.297,670.529 C40.265,669.560 40.750,668.389 40.750,667.013 C40.750,665.639 40.265,664.467 39.297,663.497 C38.327,662.529 37.155,662.044 35.781,662.044 C34.406,662.044 33.218,662.529 32.219,663.497 C31.218,664.467 30.719,665.639 30.719,667.013 C30.719,668.389 31.218,669.560 32.219,670.529 ZM31.281,656.560 C32.280,655.592 32.781,654.420 32.781,653.044 C32.781,651.670 32.280,650.482 31.281,649.482 C30.281,648.483 29.093,647.982 27.719,647.982 C26.343,647.982 25.171,648.483 24.203,649.482 C23.233,650.482 22.750,651.670 22.750,653.044 C22.750,654.420 23.233,655.592 24.203,656.560 C25.171,657.530 26.343,658.013 27.719,658.013 C29.093,658.013 30.281,657.530 31.281,656.560 ZM16.234,670.529 C17.203,671.498 18.375,671.982 19.750,671.982 C21.124,671.982 22.296,671.498 23.266,670.529 C24.234,669.560 24.719,668.389 24.719,667.013 C24.719,665.639 24.234,664.467 23.266,663.497 C22.296,662.529 21.124,662.044 19.750,662.044 C18.375,662.044 17.203,662.529 16.234,663.497 C15.265,664.467 14.781,665.639 14.781,667.013 C14.781,668.389 15.265,669.560 16.234,670.529 ZM8.922,750.216 C9.703,749.435 10.656,749.044 11.781,749.044 L27.719,749.044 L39.719,761.044 L39.719,785.044 C39.719,786.108 39.328,787.028 38.547,787.810 C37.765,788.591 36.843,788.982 35.781,788.982 L11.687,788.982 C10.624,788.982 9.703,788.591 8.922,787.810 C8.140,787.028 7.750,786.108 7.750,785.044 L7.750,752.982 C7.750,751.920 8.140,750.998 8.922,750.216 ZM36.719,763.013 L25.750,752.044 L25.750,763.013 L36.719,763.013 ZM15.719,781.013 L31.750,781.013 L31.750,776.982 L15.719,776.982 L15.719,781.013 ZM15.719,773.044 L31.750,773.044 L31.750,769.013 L15.719,769.013 L15.719,773.044 Z" class="cls-1"/>
</svg>
