<svg xmlns="http://www.w3.org/2000/svg" xmlns:xlink="http://www.w3.org/1999/xlink" preserveAspectRatio="xMidYMid" width="44" height="40" viewBox="0 0 44 40">
  <defs>
    <style>
      .cls-1 {
        fill: #fff;
        fill-rule: evenodd;
      }
    </style>
  </defs>
  <path d="M4.039,17.187 C8.976,12.188 14.961,9.688 21.992,9.688 C29.023,9.688 35.038,12.188 40.039,17.187 L43.977,13.156 C40.039,9.157 35.398,6.453 30.055,5.047 C24.711,3.641 19.367,3.641 14.023,5.047 C8.680,6.453 4.007,9.157 0.008,13.156 L4.039,17.187 ZM22.039,35.187 L28.039,29.187 C26.352,27.500 24.336,26.656 21.992,26.656 C19.648,26.656 17.664,27.500 16.039,29.187 L22.039,35.187 ZM12.008,25.156 C14.757,22.407 18.085,21.031 21.992,21.031 C25.897,21.031 29.226,22.407 31.977,25.156 L36.008,21.125 C32.132,17.313 27.460,15.406 21.992,15.406 C16.522,15.406 11.851,17.313 7.977,21.125 L12.008,25.156 Z" class="cls-1"/>
</svg>
