<svg width="330" height="70" viewBox="0 0 330 70" fill="none" xmlns="http://www.w3.org/2000/svg">
<path d="M294.608 69.9852H224.623V0H294.608C313.938 0 329.608 15.6708 329.608 35C329.608 54.3292 313.938 70 294.608 70V69.9852Z" fill="#F56323"/>
<path d="M35 67.882C16.8557 67.882 2.10327 53.1296 2.10327 34.9853C2.10327 16.8409 16.8557 2.10332 35 2.10332H224.623C242.768 2.10332 257.52 16.8558 257.52 35.0001C257.52 53.1444 242.768 67.8968 224.623 67.8968H35V67.882Z" fill="white"/>
<path d="M224.623 4.19171C241.598 4.19171 255.417 18.011 255.417 34.9852C255.417 51.9594 241.598 65.7787 224.623 65.7787H35C18.0258 65.7787 4.20652 51.9594 4.20652 34.9852C4.20652 18.011 18.011 4.19171 35 4.19171H224.623ZM224.623 0H35C15.6708 0 0 15.6708 0 35C0 54.3292 15.6708 70 35 70H224.623C243.953 70 259.623 54.3292 259.623 35C259.623 15.6708 243.953 0 224.623 0Z" fill="#FF8956"/>
<path d="M280.612 47.3826L298.948 35.548L280.612 23.7135V47.3826Z" stroke="white" stroke-width="2.83" stroke-linecap="round" stroke-linejoin="round"/>
<path d="M29.4379 42L25.6922 28.9091H28.7156L30.8825 38.005H30.9912L33.3818 28.9091H35.9706L38.3548 38.0241H38.4699L40.6368 28.9091H43.6602L39.9145 42H37.217L34.7241 33.4411H34.6219L32.1354 42H29.4379ZM46.4396 42H43.4737L47.9929 28.9091H51.5596L56.0724 42H53.1065L49.8274 31.9006H49.7251L46.4396 42ZM46.2542 36.8544H53.2599V39.0149H46.2542V36.8544ZM55.9099 31.1911V28.9091H66.6613V31.1911H62.6535V42H59.9177V31.1911H55.9099ZM79.7447 33.4922H76.9449C76.8938 33.13 76.7894 32.8082 76.6317 32.527C76.4741 32.2415 76.2716 31.9986 76.0245 31.7983C75.7773 31.598 75.4918 31.4446 75.168 31.3381C74.8484 31.2315 74.5011 31.1783 74.1261 31.1783C73.4485 31.1783 72.8583 31.3466 72.3555 31.6832C71.8526 32.0156 71.4627 32.5014 71.1857 33.1406C70.9087 33.7756 70.7702 34.5469 70.7702 35.4545C70.7702 36.3878 70.9087 37.1719 71.1857 37.8068C71.467 38.4418 71.859 38.9212 72.3618 39.245C72.8647 39.5689 73.4464 39.7308 74.1069 39.7308C74.4776 39.7308 74.8207 39.6818 75.136 39.5838C75.4556 39.4858 75.739 39.343 75.9861 39.1555C76.2333 38.9638 76.4378 38.7315 76.5998 38.4588C76.766 38.1861 76.881 37.875 76.9449 37.5256L79.7447 37.5384C79.6722 38.1392 79.4911 38.7188 79.2013 39.277C78.9158 39.831 78.5302 40.3274 78.0444 40.7663C77.5628 41.201 76.9876 41.5462 76.3185 41.8018C75.6538 42.0533 74.9016 42.179 74.0621 42.179C72.8945 42.179 71.8505 41.9148 70.93 41.3864C70.0138 40.858 69.2894 40.093 68.7567 39.0916C68.2283 38.0902 67.9641 36.8778 67.9641 35.4545C67.9641 34.027 68.2326 32.8125 68.7695 31.8111C69.3065 30.8097 70.0351 30.0469 70.9556 29.5227C71.8761 28.9943 72.9116 28.7301 74.0621 28.7301C74.8207 28.7301 75.5238 28.8366 76.1715 29.0497C76.8235 29.2628 77.4009 29.5739 77.9038 29.983C78.4066 30.3878 78.8157 30.8842 79.131 31.4723C79.4506 32.0604 79.6552 32.7337 79.7447 33.4922ZM82.0894 42V28.9091H84.8571V34.3104H90.4758V28.9091H93.2371V42H90.4758V36.5923H84.8571V42H82.0894ZM112.435 35.4545C112.435 36.8821 112.164 38.0966 111.623 39.098C111.086 40.0994 110.353 40.8643 109.424 41.3928C108.5 41.9169 107.46 42.179 106.305 42.179C105.142 42.179 104.098 41.9148 103.173 41.3864C102.248 40.858 101.517 40.093 100.98 39.0916C100.443 38.0902 100.175 36.8778 100.175 35.4545C100.175 34.027 100.443 32.8125 100.98 31.8111C101.517 30.8097 102.248 30.0469 103.173 29.5227C104.098 28.9943 105.142 28.7301 106.305 28.7301C107.46 28.7301 108.5 28.9943 109.424 29.5227C110.353 30.0469 111.086 30.8097 111.623 31.8111C112.164 32.8125 112.435 34.027 112.435 35.4545ZM109.629 35.4545C109.629 34.5298 109.49 33.75 109.213 33.1151C108.941 32.4801 108.555 31.9986 108.056 31.6705C107.558 31.3423 106.974 31.1783 106.305 31.1783C105.636 31.1783 105.052 31.3423 104.554 31.6705C104.055 31.9986 103.667 32.4801 103.39 33.1151C103.117 33.75 102.981 34.5298 102.981 35.4545C102.981 36.3793 103.117 37.1591 103.39 37.794C103.667 38.429 104.055 38.9105 104.554 39.2386C105.052 39.5668 105.636 39.7308 106.305 39.7308C106.974 39.7308 107.558 39.5668 108.056 39.2386C108.555 38.9105 108.941 38.429 109.213 37.794C109.49 37.1591 109.629 36.3793 109.629 35.4545ZM122.931 28.9091H125.699V37.4105C125.699 38.3651 125.471 39.2003 125.015 39.9162C124.563 40.6321 123.93 41.1903 123.116 41.5909C122.303 41.9872 121.354 42.1854 120.272 42.1854C119.185 42.1854 118.235 41.9872 117.421 41.5909C116.607 41.1903 115.974 40.6321 115.523 39.9162C115.071 39.2003 114.845 38.3651 114.845 37.4105V28.9091H117.613V37.174C117.613 37.6726 117.722 38.1158 117.939 38.5036C118.161 38.8913 118.472 39.196 118.872 39.4176C119.273 39.6392 119.739 39.75 120.272 39.75C120.809 39.75 121.276 39.6392 121.672 39.4176C122.072 39.196 122.381 38.8913 122.599 38.5036C122.82 38.1158 122.931 37.6726 122.931 37.174V28.9091ZM128.336 42V28.9091H133.501C134.489 28.9091 135.333 29.0859 136.032 29.4396C136.735 29.7891 137.27 30.2855 137.636 30.929C138.007 31.5682 138.193 32.3203 138.193 33.1854C138.193 34.0547 138.005 34.8026 137.63 35.429C137.255 36.0511 136.712 36.5284 136 36.8608C135.293 37.1932 134.436 37.3594 133.43 37.3594H129.972V35.1349H132.983C133.511 35.1349 133.95 35.0625 134.3 34.9176C134.649 34.7727 134.909 34.5554 135.08 34.2656C135.254 33.9759 135.342 33.6158 135.342 33.1854C135.342 32.7507 135.254 32.3842 135.08 32.0859C134.909 31.7876 134.647 31.5618 134.293 31.4084C133.944 31.2507 133.503 31.1719 132.97 31.1719H131.104V42H128.336ZM135.406 36.0426L138.659 42H135.604L132.421 36.0426H135.406ZM150.276 28.9091H153.012V38.0369C153.012 38.8807 152.822 39.6136 152.443 40.2358C152.068 40.858 151.546 41.3374 150.877 41.674C150.208 42.0107 149.43 42.179 148.544 42.179C147.755 42.179 147.04 42.0405 146.396 41.7635C145.757 41.4822 145.25 41.0561 144.875 40.4851C144.5 39.9098 144.314 39.1875 144.319 38.3182H147.074C147.082 38.6634 147.152 38.9595 147.285 39.2067C147.421 39.4496 147.606 39.6371 147.841 39.7692C148.079 39.897 148.361 39.9609 148.684 39.9609C149.025 39.9609 149.313 39.8885 149.547 39.7436C149.786 39.5945 149.967 39.3771 150.091 39.0916C150.214 38.8061 150.276 38.4545 150.276 38.0369V28.9091ZM167.69 35.4545C167.69 36.8821 167.419 38.0966 166.878 39.098C166.341 40.0994 165.608 40.8643 164.679 41.3928C163.755 41.9169 162.715 42.179 161.56 42.179C160.397 42.179 159.353 41.9148 158.428 41.3864C157.503 40.858 156.772 40.093 156.235 39.0916C155.699 38.0902 155.43 36.8778 155.43 35.4545C155.43 34.027 155.699 32.8125 156.235 31.8111C156.772 30.8097 157.503 30.0469 158.428 29.5227C159.353 28.9943 160.397 28.7301 161.56 28.7301C162.715 28.7301 163.755 28.9943 164.679 29.5227C165.608 30.0469 166.341 30.8097 166.878 31.8111C167.419 32.8125 167.69 34.027 167.69 35.4545ZM164.884 35.4545C164.884 34.5298 164.745 33.75 164.468 33.1151C164.196 32.4801 163.81 31.9986 163.311 31.6705C162.813 31.3423 162.229 31.1783 161.56 31.1783C160.891 31.1783 160.307 31.3423 159.809 31.6705C159.31 31.9986 158.922 32.4801 158.645 33.1151C158.373 33.75 158.236 34.5298 158.236 35.4545C158.236 36.3793 158.373 37.1591 158.645 37.794C158.922 38.429 159.31 38.9105 159.809 39.2386C160.307 39.5668 160.891 39.7308 161.56 39.7308C162.229 39.7308 162.813 39.5668 163.311 39.2386C163.81 38.9105 164.196 38.429 164.468 37.794C164.745 37.1591 164.884 36.3793 164.884 35.4545ZM178.186 28.9091H180.954V37.4105C180.954 38.3651 180.726 39.2003 180.27 39.9162C179.818 40.6321 179.185 41.1903 178.372 41.5909C177.558 41.9872 176.609 42.1854 175.527 42.1854C174.44 42.1854 173.49 41.9872 172.676 41.5909C171.862 41.1903 171.23 40.6321 170.778 39.9162C170.326 39.2003 170.1 38.3651 170.1 37.4105V28.9091H172.868V37.174C172.868 37.6726 172.977 38.1158 173.194 38.5036C173.416 38.8913 173.727 39.196 174.127 39.4176C174.528 39.6392 174.994 39.75 175.527 39.75C176.064 39.75 176.531 39.6392 176.927 39.4176C177.328 39.196 177.636 38.8913 177.854 38.5036C178.075 38.1158 178.186 37.6726 178.186 37.174V28.9091ZM183.591 42V28.9091H188.756C189.745 28.9091 190.588 29.0859 191.287 29.4396C191.99 29.7891 192.525 30.2855 192.892 30.929C193.262 31.5682 193.448 32.3203 193.448 33.1854C193.448 34.0547 193.26 34.8026 192.885 35.429C192.51 36.0511 191.967 36.5284 191.255 36.8608C190.548 37.1932 189.691 37.3594 188.686 37.3594H185.227V35.1349H188.238C188.767 35.1349 189.205 35.0625 189.555 34.9176C189.904 34.7727 190.164 34.5554 190.335 34.2656C190.509 33.9759 190.597 33.6158 190.597 33.1854C190.597 32.7507 190.509 32.3842 190.335 32.0859C190.164 31.7876 189.902 31.5618 189.548 31.4084C189.199 31.2507 188.758 31.1719 188.225 31.1719H186.359V42H183.591ZM190.661 36.0426L193.914 42H190.859L187.676 36.0426H190.661ZM206.713 28.9091V42H204.323L198.627 33.7607H198.531V42H195.764V28.9091H198.193L203.843 37.142H203.958V28.9091H206.713ZM209.36 42V28.9091H218.181V31.1911H212.128V34.3104H217.727V36.5923H212.128V39.718H218.207V42H209.36ZM219.974 28.9091H223.075L226.06 34.5469H226.187L229.173 28.9091H232.273L227.498 37.3722V42H224.749V37.3722L219.974 28.9091Z" fill="#F56323"/>
</svg>
